<svg width="32" height="32" viewBox="0 0 32 32" fill="none" xmlns="http://www.w3.org/2000/svg">
<path d="M15.0051 21.4971C14.1105 22.1681 12.8337 21.5297 12.8337 20.4114V11.59C12.8337 10.4716 14.1105 9.83323 15.0051 10.5042L20.8861 14.915C21.6099 15.4578 21.6099 16.5435 20.8861 17.0864L15.0051 21.4971Z" fill="#5F75AA"/>
<path fill-rule="evenodd" clip-rule="evenodd" d="M16.0003 2.88151C8.75938 2.88151 2.88128 8.75961 2.88128 16.0006C2.88128 23.2415 8.75938 29.1196 16.0003 29.1196C23.2413 29.1196 29.1194 23.2415 29.1194 16.0006C29.1194 8.75961 23.2413 2.88151 16.0003 2.88151ZM0.166992 16.0006C0.166992 7.26055 7.26033 0.167221 16.0003 0.167221C24.7403 0.167221 31.8337 7.26055 31.8337 16.0006C31.8337 24.7406 24.7403 31.8339 16.0003 31.8339C7.26033 31.8339 0.166992 24.7406 0.166992 16.0006Z" fill="#5F75AA"/>
</svg>
