<svg width="164" height="164" viewBox="0 0 164 164" fill="none" xmlns="http://www.w3.org/2000/svg">
<path d="M45.4599 50.29L46.5146 51.9893L46.5355 51.9764L46.556 51.9629L45.4599 50.29ZM45.5999 42.24L44.372 43.8187L44.3906 43.8331L44.4095 43.8471L45.5999 42.24ZM27.0499 40.77V38.77H25.0499V40.77H27.0499ZM27.0499 51.55H25.0499V53.55H27.0499V51.55ZM42.6599 30.62L43.6459 32.36L43.6676 32.3478L43.6889 32.335L42.6599 30.62ZM42.9399 22.78L41.7599 24.3948L41.7805 24.4098L41.8015 24.4244L42.9399 22.78ZM27.0499 21.45V19.45H25.0499V21.45H27.0499ZM27.0499 31.81H25.0499V33.81H27.0499V31.81ZM16.5499 12V10H14.5499V12H16.5499ZM54.9099 28.52L53.0209 27.863L53.008 27.9001L52.9966 27.9377L54.9099 28.52ZM53.5099 31.46L51.8593 30.3306L51.8525 30.3406L51.8458 30.3506L53.5099 31.46ZM51.4799 33.7L50.2085 32.1561L50.1854 32.1752L50.1629 32.1948L51.4799 33.7ZM49.0299 35.38L48.0984 33.6102L44.162 35.682L48.3243 37.2514L49.0299 35.38ZM55.7499 39.79L54.2448 41.107L54.253 41.1165L54.2614 41.1258L55.7499 39.79ZM56.8699 53.44L55.1012 52.5065L55.0909 52.5259L55.0811 52.5456L56.8699 53.44ZM53.1599 57.64L52.0289 55.9905L52.0177 55.9982L52.0066 56.0061L53.1599 57.64ZM47.3499 60.16L46.8742 58.2174L46.8648 58.2197L47.3499 60.16ZM16.5499 61H14.5499V63H16.5499V61ZM39.8599 53.55C42.4408 53.55 44.7249 53.1002 46.5146 51.9893L44.4052 48.5907C43.4883 49.1598 42.0391 49.55 39.8599 49.55V53.55ZM46.556 51.9629C48.5515 50.6555 49.4899 48.6253 49.4899 46.23H45.4899C45.4899 47.4747 45.075 48.1512 44.3639 48.6171L46.556 51.9629ZM49.4899 46.23V46.09H45.4899V46.23H49.4899ZM49.4899 46.09C49.4899 43.854 48.584 41.9615 46.7904 40.6329L44.4095 43.8471C45.1358 44.3852 45.4899 45.0594 45.4899 46.09H49.4899ZM46.8278 40.6613C45.037 39.2685 42.4549 38.77 39.5099 38.77V42.77C42.1649 42.77 43.6428 43.2515 44.372 43.8187L46.8278 40.6613ZM39.5099 38.77H27.0499V42.77H39.5099V38.77ZM25.0499 40.77V51.55H29.0499V40.77H25.0499ZM27.0499 53.55H39.8599V49.55H27.0499V53.55ZM36.9899 33.81C39.5617 33.81 41.835 33.3863 43.6459 32.36L41.6739 28.88C40.6849 29.4404 39.1782 29.81 36.9899 29.81V33.81ZM43.6889 32.335C45.7698 31.0864 46.7599 29.0559 46.7599 26.63H42.7599C42.7599 27.8441 42.35 28.4736 41.6309 28.905L43.6889 32.335ZM46.7599 26.63V26.49H42.7599V26.63H46.7599ZM46.7599 26.49C46.7599 24.2823 45.8953 22.3935 44.0783 21.1356L41.8015 24.4244C42.4112 24.8465 42.7599 25.431 42.7599 26.49H46.7599ZM44.12 21.1652C42.4273 19.9282 40.1923 19.45 37.6899 19.45V23.45C39.7609 23.45 41.0259 23.8584 41.7599 24.3948L44.12 21.1652ZM37.6899 19.45H27.0499V23.45H37.6899V19.45ZM25.0499 21.45V31.81H29.0499V21.45H25.0499ZM27.0499 33.81H36.9899V29.81H27.0499V33.81ZM16.5499 14H39.2999V10H16.5499V14ZM39.2999 14C44.6218 14 48.3014 15.3599 50.6957 17.7542L53.5241 14.9258C50.1318 11.5334 45.2714 10 39.2999 10V14ZM50.6957 17.7542C52.5419 19.6004 53.4699 21.86 53.4699 24.67H57.4699C57.4699 20.8534 56.158 17.5596 53.5241 14.9258L50.6957 17.7542ZM53.4699 24.67V24.81H57.4699V24.67H53.4699ZM53.4699 24.81C53.4699 26.0363 53.306 27.0434 53.0209 27.863L56.7989 29.177C57.2605 27.8499 57.4699 26.3837 57.4699 24.81H53.4699ZM52.9966 27.9377C52.7265 28.825 52.3461 29.6192 51.8593 30.3306L55.1605 32.5894C55.8871 31.5275 56.44 30.3616 56.8233 29.1023L52.9966 27.9377ZM51.8458 30.3506C51.3967 31.0244 50.8531 31.6253 50.2085 32.1561L52.7513 35.2439C53.6934 34.468 54.5032 33.5756 55.174 32.5694L51.8458 30.3506ZM50.1629 32.1948C49.5351 32.7442 48.8481 33.2156 48.0984 33.6102L49.9614 37.1498C50.9851 36.611 51.9314 35.9625 52.7969 35.2052L50.1629 32.1948ZM48.3243 37.2514C50.9319 38.2346 52.8721 39.5382 54.2448 41.107L57.2551 38.473C55.3611 36.3084 52.8213 34.6721 49.7355 33.5086L48.3243 37.2514ZM54.2614 41.1258C55.4681 42.4704 56.1999 44.4782 56.1999 47.42H60.1999C60.1999 43.8285 59.2984 40.7496 57.2384 38.4542L54.2614 41.1258ZM56.1999 47.42V47.56H60.1999V47.42H56.1999ZM56.1999 47.56C56.1999 49.5329 55.8109 51.1617 55.1012 52.5065L58.6387 54.3735C59.7023 52.3583 60.1999 50.0671 60.1999 47.56H56.1999ZM55.0811 52.5456C54.4011 53.9055 53.3982 55.0516 52.0289 55.9905L54.291 59.2895C56.1883 57.9884 57.6588 56.3345 58.6588 54.3344L55.0811 52.5456ZM52.0066 56.0061C50.6628 56.9546 48.9678 57.7047 46.8742 58.2174L47.8257 62.1026C50.3053 61.4953 52.4837 60.5654 54.3133 59.2739L52.0066 56.0061ZM46.8648 58.2197C44.8104 58.7333 42.48 59 39.8599 59V63C42.7465 63 45.4094 62.7067 47.835 62.1003L46.8648 58.2197ZM39.8599 59H16.5499V63H39.8599V59ZM18.5499 61V12H14.5499V61H18.5499ZM96.9575 50.71L96.1583 48.8766V48.8766L96.9575 50.71ZM101.577 47.42L100.115 46.0554L100.103 46.0686L100.091 46.0821L101.577 47.42ZM104.588 42.59L102.731 41.8472L102.726 41.8596L102.721 41.872L104.588 42.59ZM104.588 30.55L102.715 31.2522L102.722 31.2726L102.731 31.2928L104.588 30.55ZM101.507 25.65L100.045 27.0146L100.057 27.0274L100.07 27.04L101.507 25.65ZM96.8175 22.36L95.9794 24.1759L95.9988 24.1849L96.0183 24.1934L96.8175 22.36ZM84.8475 22.29L84.0483 20.4566L84.0395 20.4604L84.0308 20.4644L84.8475 22.29ZM80.2275 25.58L78.7654 24.2154L78.753 24.2286L78.7409 24.2421L80.2275 25.58ZM77.2175 30.48L75.3605 29.7372L75.3556 29.7496L75.3508 29.762L77.2175 30.48ZM77.2175 42.45L75.3448 43.1522L75.3525 43.1726L75.3605 43.1928L77.2175 42.45ZM80.2975 47.35L78.8354 48.7146L78.8473 48.7274L78.8595 48.74L80.2975 47.35ZM84.9875 50.71L84.1313 52.5175L84.1596 52.5309L84.1883 52.5434L84.9875 50.71ZM80.4375 59.88L79.6529 61.7197L79.6644 61.7246L79.676 61.7294L80.4375 59.88ZM72.1775 54.49L70.7633 55.9042L70.7777 55.9186L70.7924 55.9328L72.1775 54.49ZM66.7875 46.51L64.9364 47.2673L64.9434 47.2843L64.9507 47.3012L66.7875 46.51ZM66.8575 26.7L68.6944 27.4913L68.6987 27.4811L66.8575 26.7ZM72.2475 18.65L70.8333 17.2358V17.2358L72.2475 18.65ZM80.5075 13.19L81.269 15.0394L81.2757 15.0366L81.2824 15.0338L80.5075 13.19ZM101.438 13.19L100.653 15.0297L100.664 15.0346L100.676 15.0394L101.438 13.19ZM109.627 18.58L108.213 19.9942L108.228 20.0086L108.242 20.0228L109.627 18.58ZM115.018 26.56L113.166 27.3173L113.173 27.3343L113.181 27.3512L115.018 26.56ZM115.018 46.37L116.854 47.1613L116.859 47.1511L115.018 46.37ZM109.557 54.42L108.143 53.0058L109.557 54.42ZM101.298 59.88L102.059 61.7294L102.066 61.7266L102.072 61.7238L101.298 59.88ZM91.0075 53.9C93.4066 53.9 95.6646 53.4553 97.7567 52.5434L96.1583 48.8766C94.6104 49.5514 92.9017 49.9 91.0075 49.9V53.9ZM97.7567 52.5434C99.8241 51.6422 101.603 50.3817 103.064 48.7579L100.091 46.0821C99.0323 47.2583 97.7309 48.1911 96.1583 48.8766L97.7567 52.5434ZM103.04 48.7846C104.525 47.1936 105.664 45.363 106.454 43.308L102.721 41.872C102.111 43.457 101.244 44.8464 100.115 46.0554L103.04 48.7846ZM106.444 43.3328C107.29 41.2194 107.707 38.9829 107.707 36.64H103.707C103.707 38.4971 103.379 40.2273 102.731 41.8472L106.444 43.3328ZM107.707 36.64V36.5H103.707V36.64H107.707ZM107.707 36.5C107.707 34.1571 107.29 31.9206 106.444 29.8072L102.731 31.2928C103.379 32.9127 103.707 34.6429 103.707 36.5H107.707ZM106.46 29.8478C105.666 27.7307 104.494 25.8618 102.945 24.26L100.07 27.04C101.228 28.2382 102.109 29.6359 102.715 31.2522L106.46 29.8478ZM102.97 24.2854C101.469 22.6781 99.678 21.4251 97.6167 20.5266L96.0183 24.1934C97.597 24.8816 98.9322 25.8219 100.045 27.0146L102.97 24.2854ZM97.6556 20.5441C95.5545 19.5743 93.2827 19.1 90.8675 19.1V23.1C92.7457 23.1 94.4405 23.4657 95.9794 24.1759L97.6556 20.5441ZM90.8675 19.1C88.4281 19.1 86.1457 19.5424 84.0483 20.4566L85.6467 24.1234C87.1893 23.451 88.9202 23.1 90.8675 23.1V19.1ZM84.0308 20.4644C82.0173 21.3651 80.2569 22.6173 78.7654 24.2154L81.6896 26.9446C82.8114 25.7427 84.131 24.8015 85.6642 24.1156L84.0308 20.4644ZM78.7409 24.2421C77.313 25.8286 76.1887 27.6667 75.3605 29.7372L79.0745 31.2228C79.7396 29.5599 80.622 28.1314 81.7141 26.9179L78.7409 24.2421ZM75.3508 29.762C74.5561 31.8282 74.1675 34.0335 74.1675 36.36H78.1675C78.1675 34.4865 78.4789 32.7718 79.0842 31.198L75.3508 29.762ZM74.1675 36.36V36.5H78.1675V36.36H74.1675ZM74.1675 36.5C74.1675 38.8269 74.5562 41.0492 75.3448 43.1522L79.0902 41.7478C78.4788 40.1174 78.1675 38.3731 78.1675 36.5H74.1675ZM75.3605 43.1928C76.1945 45.2778 77.3514 47.1247 78.8354 48.7146L81.7596 45.9854C80.6303 44.7753 79.7338 43.3556 79.0745 41.7072L75.3605 43.1928ZM78.8595 48.74C80.3814 50.3144 82.1422 51.5753 84.1313 52.5175L85.8437 48.9025C84.2861 48.1647 82.9202 47.1856 81.7355 45.96L78.8595 48.74ZM84.1883 52.5434C86.2857 53.4576 88.5681 53.9 91.0075 53.9V49.9C89.0602 49.9 87.3293 49.549 85.7867 48.8766L84.1883 52.5434ZM90.8675 59.84C87.3222 59.84 84.1073 59.2282 81.199 58.0306L79.676 61.7294C83.1143 63.1451 86.8529 63.84 90.8675 63.84V59.84ZM81.2221 58.0403C78.2563 56.7755 75.71 55.1088 73.5626 53.0472L70.7924 55.9328C73.3116 58.3512 76.272 60.2778 79.6529 61.7197L81.2221 58.0403ZM73.5917 53.0758C71.4879 50.972 69.833 48.5246 68.6243 45.7188L64.9507 47.3012C66.3553 50.562 68.2937 53.4347 70.7633 55.9042L73.5917 53.0758ZM68.6386 45.7527C67.482 42.9254 66.8975 39.894 66.8975 36.64H62.8975C62.8975 40.386 63.573 43.9346 64.9364 47.2673L68.6386 45.7527ZM66.8975 36.64V36.5H62.8975V36.64H66.8975ZM66.8975 36.5C66.8975 33.2556 67.5017 30.2599 68.6943 27.4912L65.0207 25.9088C63.6 29.2067 62.8975 32.7444 62.8975 36.5H66.8975ZM68.6987 27.4811C69.9085 24.6293 71.563 22.1629 73.6617 20.0642L70.8333 17.2358C68.3587 19.7104 66.4198 22.6107 65.0163 25.9189L68.6987 27.4811ZM73.6617 20.0642C75.8009 17.9251 78.3299 16.2496 81.269 15.0394L79.746 11.3406C76.3385 12.7437 73.3608 14.7083 70.8333 17.2358L73.6617 20.0642ZM81.2824 15.0338C84.2375 13.7918 87.4715 13.16 91.0075 13.16V9.16C86.9835 9.16 83.2175 9.88156 79.7326 11.3462L81.2824 15.0338ZM91.0075 13.16C94.5438 13.16 97.7505 13.7919 100.653 15.0297L102.222 11.3503C98.7779 9.88146 95.0312 9.16 91.0075 9.16V13.16ZM100.676 15.0394C103.62 16.2517 106.125 17.9055 108.213 19.9942L111.042 17.1658C108.557 14.6812 105.601 12.7416 102.199 11.3406L100.676 15.0394ZM108.242 20.0228C110.368 22.0637 112.009 24.4882 113.166 27.3173L116.869 25.8027C115.506 22.4718 113.553 19.5763 111.013 17.1372L108.242 20.0228ZM113.181 27.3512C114.373 30.1199 114.978 33.1156 114.978 36.36H118.978C118.978 32.6044 118.275 29.0667 116.854 25.7688L113.181 27.3512ZM114.978 36.36V36.5H118.978V36.36H114.978ZM114.978 36.5C114.978 39.7442 114.373 42.7673 113.176 45.5889L116.859 47.1511C118.275 43.8127 118.978 40.2558 118.978 36.5H114.978ZM113.181 45.5788C111.974 48.3798 110.297 50.8517 108.143 53.0058L110.972 55.8342C113.484 53.3217 115.448 50.4269 116.854 47.1612L113.181 45.5788ZM108.143 53.0058C106.054 55.095 103.523 56.7752 100.523 58.0362L102.072 61.7238C105.512 60.2781 108.488 58.3184 110.972 55.8342L108.143 53.0058ZM100.536 58.0306C97.6277 59.2282 94.4128 59.84 90.8675 59.84V63.84C94.8821 63.84 98.6207 63.1451 102.059 61.7294L100.536 58.0306ZM126.54 12V10H124.54V12H126.54ZM137.32 12H139.32V10H137.32V12ZM137.32 51.2H135.32V53.2H137.32V51.2ZM161.75 51.2H163.75V49.2H161.75V51.2ZM161.75 61V63H163.75V61H161.75ZM126.54 61H124.54V63H126.54V61ZM126.54 14H137.32V10H126.54V14ZM135.32 12V51.2H139.32V12H135.32ZM137.32 53.2H161.75V49.2H137.32V53.2ZM159.75 51.2V61H163.75V51.2H159.75ZM161.75 59H126.54V63H161.75V59ZM128.54 61V12H124.54V61H128.54ZM31.4665 139.81L30.783 141.69L30.7938 141.694L30.8047 141.697L31.4665 139.81ZM21.6665 133.86L20.1312 132.578L18.8995 134.054L20.3247 135.343L21.6665 133.86ZM28.0365 126.23L29.2977 124.678L27.766 123.433L26.5012 124.948L28.0365 126.23ZM34.8965 130.57L34.0607 132.387L34.0675 132.39L34.0743 132.393L34.8965 130.57ZM47.8465 130.99L48.941 132.664L48.9485 132.659L48.9559 132.654L47.8465 130.99ZM49.3165 125.6L47.4703 126.369L47.5106 126.466L47.5607 126.558L49.3165 125.6ZM47.8465 124.06L46.7371 125.724L46.7616 125.74L46.7865 125.756L47.8465 124.06ZM44.8365 122.66L44.1419 124.535L44.1528 124.54L44.1638 124.543L44.8365 122.66ZM39.8665 121.19L40.3516 119.25L40.3429 119.248L39.8665 121.19ZM33.1465 119.16L33.844 117.286L33.1465 119.16ZM28.0365 116.43L26.7871 117.992L26.8032 118.005L26.8196 118.017L28.0365 116.43ZM24.7465 112.3L22.9275 113.132L22.9373 113.153L22.9475 113.174L24.7465 112.3ZM24.8865 100.05L26.694 100.906L26.6982 100.897L26.7024 100.888L24.8865 100.05ZM28.3865 95.36L27.0925 93.835L27.0809 93.8448L27.0695 93.8548L28.3865 95.36ZM33.8465 92.35L33.214 90.4526L33.8465 92.35ZM50.6465 92.91L49.9701 94.7922L49.9793 94.7954L50.6465 92.91ZM58.9765 97.53L60.6229 98.6655L61.6829 97.1285L60.2223 95.9654L58.9765 97.53ZM53.3765 105.65L52.2509 107.303L53.8942 108.422L55.0229 106.785L53.3765 105.65ZM46.9365 102.15L46.1585 103.993L46.1761 104L46.1937 104.007L46.9365 102.15ZM35.8765 102.08L37.0994 103.663L37.1091 103.655L35.8765 102.08ZM34.7565 107.33L32.9406 108.168L32.9807 108.255L33.0289 108.338L34.7565 107.33ZM36.4365 108.87L35.4224 110.594L35.4224 110.594L36.4365 108.87ZM39.6565 110.2L39.0637 112.11L39.0727 112.113L39.0818 112.116L39.6565 110.2ZM44.9065 111.67L44.3912 113.602L44.3957 113.604L44.9065 111.67ZM51.4865 113.91L50.6825 115.741L50.7091 115.753L50.7361 115.764L51.4865 113.91ZM56.3865 116.85L55.0545 118.342L55.0824 118.367L55.1113 118.391L56.3865 116.85ZM59.3965 120.84L57.5553 121.621L57.5652 121.644L57.5758 121.668L59.3965 120.84ZM59.1165 133.02L60.923 133.878L60.9271 133.87L60.9311 133.861L59.1165 133.02ZM55.4065 137.78L56.6502 139.346L56.6642 139.335L56.6779 139.324L55.4065 137.78ZM49.7365 140.72L50.3074 142.637L50.3261 142.631L50.3446 142.625L49.7365 140.72ZM42.4565 139.7C38.953 139.7 35.5133 139.11 32.1283 137.923L30.8047 141.697C34.6064 143.03 38.4933 143.7 42.4565 143.7V139.7ZM32.15 137.93C28.8086 136.715 25.7638 134.87 23.0083 132.377L20.3247 135.343C23.4492 138.17 26.9377 140.291 30.783 141.69L32.15 137.93ZM23.2018 135.142L29.5718 127.512L26.5012 124.948L20.1312 132.578L23.2018 135.142ZM26.7753 127.782C29.1296 129.695 31.5576 131.236 34.0607 132.387L35.7323 128.753C33.5687 127.758 31.4233 126.405 29.2977 124.678L26.7753 127.782ZM34.0743 132.393C36.7311 133.591 39.6038 134.18 42.6665 134.18V130.18C40.1291 130.18 37.8219 129.695 35.7187 128.747L34.0743 132.393ZM42.6665 134.18C45.0991 134.18 47.2698 133.757 48.941 132.664L46.752 129.316C45.9965 129.81 44.7139 130.18 42.6665 130.18V134.18ZM48.9559 132.654C50.7412 131.464 51.7365 129.712 51.7365 127.56H47.7365C47.7365 128.301 47.4718 128.836 46.7371 129.326L48.9559 132.654ZM51.7365 127.56V127.42H47.7365V127.56H51.7365ZM51.7365 127.42C51.7365 126.451 51.5413 125.502 51.0723 124.642L47.5607 126.558C47.6517 126.724 47.7365 126.989 47.7365 127.42H51.7365ZM51.1626 124.831C50.7124 123.75 49.8531 122.956 48.9065 122.364L46.7865 125.756C47.3332 126.098 47.4539 126.33 47.4703 126.369L51.1626 124.831ZM48.9559 122.396C48.0607 121.799 46.8842 121.268 45.5092 120.777L44.1638 124.543C45.4021 124.986 46.2323 125.388 46.7371 125.724L48.9559 122.396ZM45.5311 120.785C44.1752 120.282 42.4405 119.772 40.3516 119.25L39.3814 123.13C41.3991 123.635 42.9778 124.104 44.1419 124.535L45.5311 120.785ZM40.3429 119.248C37.931 118.656 35.7663 118.001 33.844 117.286L32.449 121.034C34.54 121.812 36.8553 122.511 39.39 123.132L40.3429 119.248ZM33.844 117.286C31.9854 116.594 30.466 115.772 29.2533 114.843L26.8196 118.017C28.407 119.234 30.2943 120.233 32.449 121.034L33.844 117.286ZM29.2859 114.868C28.121 113.936 27.2107 112.796 26.5455 111.426L22.9475 113.174C23.8689 115.071 25.152 116.684 26.7871 117.992L29.2859 114.868ZM26.5654 111.468C25.9722 110.171 25.6265 108.445 25.6265 106.21H21.6265C21.6265 108.828 22.0274 111.163 22.9275 113.132L26.5654 111.468ZM25.6265 106.21V106.07H21.6265V106.21H25.6265ZM25.6265 106.07C25.6265 104.084 25.9975 102.376 26.694 100.906L23.079 99.1938C22.0954 101.27 21.6265 103.576 21.6265 106.07H25.6265ZM26.7024 100.888C27.426 99.3203 28.4236 97.985 29.7035 96.8652L27.0695 93.8548C25.3627 95.3483 24.027 97.1397 23.0706 99.2119L26.7024 100.888ZM29.6804 96.885C31.0078 95.7588 32.5978 94.8744 34.4789 94.2474L33.214 90.4526C30.8951 91.2256 28.8452 92.3479 27.0925 93.835L29.6804 96.885ZM34.4789 94.2474C36.349 93.624 38.4422 93.3 40.7765 93.3V89.3C38.0708 89.3 35.544 89.676 33.214 90.4526L34.4789 94.2474ZM40.7765 93.3C44.1694 93.3 47.2271 93.8064 49.9701 94.7922L51.3229 91.0279C48.0926 89.867 44.5702 89.3 40.7765 89.3V93.3ZM49.9793 94.7954C52.803 95.7946 55.3842 97.2261 57.7306 99.0946L60.2223 95.9654C57.5288 93.8206 54.5566 92.1721 51.3136 91.0246L49.9793 94.7954ZM57.3301 96.3945L51.7301 104.515L55.0229 106.785L60.6229 98.6655L57.3301 96.3945ZM54.5021 103.997C52.2089 102.436 49.9347 101.195 47.6793 100.293L46.1937 104.007C48.1383 104.785 50.1574 105.878 52.2509 107.303L54.5021 103.997ZM47.7144 100.308C45.3895 99.3259 43.0258 98.82 40.6365 98.82V102.82C42.4471 102.82 44.2835 103.201 46.1585 103.993L47.7144 100.308ZM40.6365 98.82C38.3181 98.82 36.2144 99.2759 34.6439 100.505L37.1091 103.655C37.6853 103.204 38.7549 102.82 40.6365 102.82V98.82ZM34.6536 100.497C33.1761 101.639 32.3365 103.209 32.3365 105.09H36.3365C36.3365 104.544 36.5235 104.108 37.0994 103.663L34.6536 100.497ZM32.3365 105.09V105.23H36.3365V105.09H32.3365ZM32.3365 105.23C32.3365 106.259 32.5187 107.254 32.9406 108.168L36.5724 106.492C36.4343 106.193 36.3365 105.787 36.3365 105.23H32.3365ZM33.0289 108.338C33.5856 109.292 34.4507 110.022 35.4224 110.594L37.4505 107.146C36.8356 106.784 36.5807 106.488 36.484 106.322L33.0289 108.338ZM35.4224 110.594C36.3995 111.169 37.6331 111.666 39.0637 112.11L40.2493 108.29C38.9732 107.894 38.0602 107.505 37.4505 107.146L35.4224 110.594ZM39.0818 112.116C40.5085 112.544 42.2798 113.039 44.3912 113.602L45.4218 109.738C43.3331 109.181 41.6045 108.696 40.2312 108.284L39.0818 112.116ZM44.3957 113.604C46.7901 114.236 48.8824 114.951 50.6825 115.741L52.2905 112.079C50.2639 111.189 47.9695 110.411 45.4173 109.736L44.3957 113.604ZM50.7361 115.764C52.5257 116.488 53.9508 117.356 55.0545 118.342L57.7185 115.358C56.2088 114.01 54.3673 112.918 52.2369 112.056L50.7361 115.764ZM55.1113 118.391C56.2306 119.317 57.0334 120.391 57.5553 121.621L61.2376 120.059C60.4529 118.209 59.249 116.623 57.6616 115.309L55.1113 118.391ZM57.5758 121.668C58.1303 122.888 58.4465 124.435 58.4465 126.37H62.4465C62.4465 124.012 62.0626 121.872 61.2172 120.012L57.5758 121.668ZM58.4465 126.37V126.51H62.4465V126.37H58.4465ZM58.4465 126.51C58.4465 128.69 58.0493 130.566 57.3019 132.179L60.9311 133.861C61.957 131.647 62.4465 129.183 62.4465 126.51H58.4465ZM57.3099 132.162C56.5485 133.765 55.4939 135.117 54.1351 136.236L56.6779 139.324C58.4924 137.83 59.9112 136.008 60.923 133.878L57.3099 132.162ZM54.1627 136.214C52.7897 137.304 51.1222 138.178 49.1284 138.815L50.3446 142.625C52.7374 141.862 54.8499 140.776 56.6502 139.346L54.1627 136.214ZM49.1655 138.803C47.1847 139.393 44.9537 139.7 42.4565 139.7V143.7C45.2792 143.7 47.9016 143.353 50.3074 142.637L49.1655 138.803ZM97.9419 120.49V122.49H100.923L99.7926 119.732L97.9419 120.49ZM91.4319 104.6L93.2826 103.842L91.4319 99.3245L89.5812 103.842L91.4319 104.6ZM84.9219 120.49L83.0712 119.732L81.9412 122.49H84.9219V120.49ZM86.6019 91.65V89.65H85.2794L84.7616 90.8669L86.6019 91.65ZM96.5419 91.65L98.3822 90.8669L97.8644 89.65H96.5419V91.65ZM117.542 141V143H120.566L119.382 140.217L117.542 141ZM106.272 141L104.42 141.755L104.927 143H106.272V141ZM101.792 130.01L103.644 129.255L103.136 128.01H101.792V130.01ZM81.0719 130.01V128.01H79.7274L79.2198 129.255L81.0719 130.01ZM76.5919 141V143H77.9364L78.4439 141.755L76.5919 141ZM65.6019 141L63.7616 140.217L62.5773 143H65.6019V141ZM99.7926 119.732L93.2826 103.842L89.5812 105.358L96.0912 121.248L99.7926 119.732ZM89.5812 103.842L83.0712 119.732L86.7726 121.248L93.2826 105.358L89.5812 103.842ZM84.9219 122.49H97.9419V118.49H84.9219V122.49ZM86.6019 93.65H96.5419V89.65H86.6019V93.65ZM94.7016 92.4331L115.702 141.783L119.382 140.217L98.3822 90.8669L94.7016 92.4331ZM117.542 139H106.272V143H117.542V139ZM108.124 140.245L103.644 129.255L99.9398 130.765L104.42 141.755L108.124 140.245ZM101.792 128.01H81.0719V132.01H101.792V128.01ZM79.2198 129.255L74.7398 140.245L78.4439 141.755L82.9239 130.765L79.2198 129.255ZM76.5919 139H65.6019V143H76.5919V139ZM67.4422 141.783L88.4422 92.4331L84.7616 90.8669L63.7616 140.217L67.4422 141.783ZM131.545 139.81L130.861 141.69L130.872 141.694L130.883 141.697L131.545 139.81ZM121.745 133.86L120.209 132.578L118.978 134.054L120.403 135.343L121.745 133.86ZM128.115 126.23L129.376 124.678L127.844 123.433L126.579 124.948L128.115 126.23ZM134.975 130.57L134.139 132.387L134.146 132.39L134.152 132.393L134.975 130.57ZM147.925 130.99L149.019 132.664L149.027 132.659L149.034 132.654L147.925 130.99ZM149.395 125.6L147.548 126.369L147.589 126.466L147.639 126.558L149.395 125.6ZM147.925 124.06L146.815 125.724L146.84 125.74L146.865 125.756L147.925 124.06ZM144.915 122.66L144.22 124.535L144.231 124.54L144.242 124.543L144.915 122.66ZM139.945 121.19L140.43 119.25L140.421 119.248L139.945 121.19ZM133.225 119.16L133.922 117.286H133.922L133.225 119.16ZM128.115 116.43L126.865 117.992L126.881 118.005L126.898 118.017L128.115 116.43ZM124.825 112.3L123.006 113.132L123.015 113.153L123.026 113.174L124.825 112.3ZM124.965 100.05L126.772 100.906L126.776 100.897L126.781 100.888L124.965 100.05ZM128.465 95.36L127.171 93.835L127.159 93.8448L127.148 93.8548L128.465 95.36ZM133.925 92.35L133.292 90.4526L133.925 92.35ZM150.725 92.91L150.048 94.7922L150.057 94.7954L150.725 92.91ZM159.055 97.53L160.701 98.6655L161.761 97.1285L160.3 95.9654L159.055 97.53ZM153.455 105.65L152.329 107.303L153.972 108.422L155.101 106.785L153.455 105.65ZM147.015 102.15L146.237 103.993L146.254 104L146.272 104.007L147.015 102.15ZM135.955 102.08L137.178 103.663L137.187 103.655L135.955 102.08ZM134.835 107.33L133.019 108.168L133.059 108.255L133.107 108.338L134.835 107.33ZM136.515 108.87L135.501 110.594L135.501 110.594L136.515 108.87ZM139.735 110.2L139.142 112.11L139.151 112.113L139.16 112.116L139.735 110.2ZM144.985 111.67L144.469 113.602L144.474 113.604L144.985 111.67ZM151.565 113.91L150.761 115.741L150.787 115.753L150.814 115.764L151.565 113.91ZM156.465 116.85L155.133 118.342L155.161 118.367L155.189 118.391L156.465 116.85ZM159.475 120.84L157.633 121.621L157.643 121.644L157.654 121.668L159.475 120.84ZM159.195 133.02L161.001 133.878L161.005 133.87L161.009 133.861L159.195 133.02ZM155.485 137.78L156.728 139.346L156.742 139.335L156.756 139.324L155.485 137.78ZM149.815 140.72L150.386 142.637L150.404 142.631L150.423 142.625L149.815 140.72ZM142.535 139.7C139.031 139.7 135.591 139.11 132.206 137.923L130.883 141.697C134.685 143.03 138.571 143.7 142.535 143.7V139.7ZM132.228 137.93C128.887 136.715 125.842 134.87 123.086 132.377L120.403 135.343C123.527 138.17 127.016 140.291 130.861 141.69L132.228 137.93ZM123.28 135.142L129.65 127.512L126.579 124.948L120.209 132.578L123.28 135.142ZM126.853 127.782C129.208 129.695 131.636 131.236 134.139 132.387L135.81 128.753C133.647 127.758 131.501 126.405 129.376 124.678L126.853 127.782ZM134.152 132.393C136.809 133.591 139.682 134.18 142.745 134.18V130.18C140.207 130.18 137.9 129.695 135.797 128.747L134.152 132.393ZM142.745 134.18C145.177 134.18 147.348 133.757 149.019 132.664L146.83 129.316C146.075 129.81 144.792 130.18 142.745 130.18V134.18ZM149.034 132.654C150.819 131.464 151.815 129.712 151.815 127.56H147.815C147.815 128.301 147.55 128.836 146.815 129.326L149.034 132.654ZM151.815 127.56V127.42H147.815V127.56H151.815ZM151.815 127.42C151.815 126.451 151.619 125.502 151.15 124.642L147.639 126.558C147.73 126.724 147.815 126.989 147.815 127.42H151.815ZM151.241 124.831C150.791 123.75 149.931 122.956 148.985 122.364L146.865 125.756C147.411 126.098 147.532 126.33 147.548 126.369L151.241 124.831ZM149.034 122.396C148.139 121.799 146.962 121.268 145.587 120.777L144.242 124.543C145.48 124.986 146.31 125.388 146.815 125.724L149.034 122.396ZM145.609 120.785C144.253 120.282 142.519 119.772 140.43 119.25L139.46 123.13C141.477 123.635 143.056 124.104 144.22 124.535L145.609 120.785ZM140.421 119.248C138.009 118.656 135.844 118.001 133.922 117.286L132.527 121.034C134.618 121.812 136.933 122.511 139.468 123.132L140.421 119.248ZM133.922 117.286C132.063 116.594 130.544 115.772 129.331 114.843L126.898 118.017C128.485 119.234 130.372 120.233 132.527 121.034L133.922 117.286ZM129.364 114.868C128.199 113.936 127.289 112.796 126.624 111.426L123.026 113.174C123.947 115.071 125.23 116.684 126.865 117.992L129.364 114.868ZM126.644 111.468C126.05 110.171 125.705 108.445 125.705 106.21H121.705C121.705 108.828 122.106 111.163 123.006 113.132L126.644 111.468ZM125.705 106.21V106.07H121.705V106.21H125.705ZM125.705 106.07C125.705 104.084 126.076 102.376 126.772 100.906L123.157 99.1938C122.174 101.27 121.705 103.576 121.705 106.07H125.705ZM126.781 100.888C127.504 99.3203 128.502 97.985 129.782 96.8652L127.148 93.8548C125.441 95.3483 124.105 97.1397 123.149 99.2119L126.781 100.888ZM129.759 96.885C131.086 95.7588 132.676 94.8744 134.557 94.2474L133.292 90.4526C130.973 91.2256 128.923 92.3479 127.171 93.835L129.759 96.885ZM134.557 94.2474C136.427 93.624 138.52 93.3 140.855 93.3V89.3C138.149 89.3 135.622 89.676 133.292 90.4526L134.557 94.2474ZM140.855 93.3C144.248 93.3 147.305 93.8064 150.048 94.7922L151.401 91.0279C148.171 89.867 144.648 89.3 140.855 89.3V93.3ZM150.057 94.7954C152.881 95.7946 155.462 97.2261 157.809 99.0946L160.3 95.9654C157.607 93.8206 154.635 92.1721 151.392 91.0246L150.057 94.7954ZM157.408 96.3945L151.808 104.515L155.101 106.785L160.701 98.6655L157.408 96.3945ZM154.58 103.997C152.287 102.436 150.013 101.195 147.757 100.293L146.272 104.007C148.216 104.785 150.236 105.878 152.329 107.303L154.58 103.997ZM147.793 100.308C145.468 99.3259 143.104 98.82 140.715 98.82V102.82C142.525 102.82 144.362 103.201 146.237 103.993L147.793 100.308ZM140.715 98.82C138.396 98.82 136.292 99.2759 134.722 100.505L137.187 103.655C137.763 103.204 138.833 102.82 140.715 102.82V98.82ZM134.732 100.497C133.254 101.639 132.415 103.209 132.415 105.09H136.415C136.415 104.544 136.602 104.108 137.178 103.663L134.732 100.497ZM132.415 105.09V105.23H136.415V105.09H132.415ZM132.415 105.23C132.415 106.259 132.597 107.254 133.019 108.168L136.651 106.492C136.512 106.193 136.415 105.787 136.415 105.23H132.415ZM133.107 108.338C133.664 109.292 134.529 110.022 135.501 110.594L137.529 107.146C136.914 106.784 136.659 106.488 136.562 106.322L133.107 108.338ZM135.501 110.594C136.478 111.169 137.711 111.666 139.142 112.11L140.327 108.29C139.051 107.894 138.138 107.505 137.529 107.146L135.501 110.594ZM139.16 112.116C140.587 112.544 142.358 113.039 144.469 113.602L145.5 109.738C143.411 109.181 141.683 108.696 140.309 108.284L139.16 112.116ZM144.474 113.604C146.868 114.236 148.96 114.951 150.761 115.741L152.369 112.079C150.342 111.189 148.048 110.411 145.495 109.736L144.474 113.604ZM150.814 115.764C152.604 116.488 154.029 117.356 155.133 118.342L157.797 115.358C156.287 114.01 154.445 112.918 152.315 112.056L150.814 115.764ZM155.189 118.391C156.309 119.317 157.112 120.391 157.633 121.621L161.316 120.059C160.531 118.209 159.327 116.623 157.74 115.309L155.189 118.391ZM157.654 121.668C158.208 122.888 158.525 124.435 158.525 126.37H162.525C162.525 124.012 162.141 121.872 161.295 120.012L157.654 121.668ZM158.525 126.37V126.51H162.525V126.37H158.525ZM158.525 126.51C158.525 128.69 158.127 130.566 157.38 132.179L161.009 133.861C162.035 131.647 162.525 129.183 162.525 126.51H158.525ZM157.388 132.162C156.627 133.765 155.572 135.117 154.213 136.236L156.756 139.324C158.57 137.83 159.989 136.008 161.001 133.878L157.388 132.162ZM154.241 136.214C152.868 137.304 151.2 138.178 149.207 138.815L150.423 142.625C152.816 141.862 154.928 140.776 156.728 139.346L154.241 136.214ZM149.244 138.803C147.263 139.393 145.032 139.7 142.535 139.7V143.7C145.357 143.7 147.98 143.353 150.386 142.637L149.244 138.803Z" fill="#BDC4CC"/>
<path d="M29.8599 48.55C32.2399 48.55 34.1066 48.13 35.4599 47.29C36.8133 46.4033 37.4899 45.05 37.4899 43.23V43.09C37.4899 41.4567 36.8599 40.1733 35.5999 39.24C34.3399 38.26 32.3099 37.77 29.5099 37.77H17.0499V48.55H29.8599ZM26.9899 28.81C29.3699 28.81 31.2599 28.4133 32.6599 27.62C34.0599 26.78 34.7599 25.45 34.7599 23.63V23.49C34.7599 21.8567 34.1533 20.62 32.9399 19.78C31.7266 18.8933 29.9766 18.45 27.6899 18.45H17.0499V28.81H26.9899ZM6.54992 9H29.2999C34.9466 9 39.2166 10.4467 42.1099 13.34C44.3499 15.58 45.4699 18.3567 45.4699 21.67V21.81C45.4699 23.21 45.2833 24.4467 44.9099 25.52C44.5833 26.5933 44.1166 27.5733 43.5099 28.46C42.9499 29.3 42.2733 30.0467 41.4799 30.7C40.7333 31.3533 39.9166 31.9133 39.0299 32.38C41.8766 33.4533 44.1166 34.9233 45.7499 36.79C47.3833 38.61 48.1999 41.1533 48.1999 44.42V44.56C48.1999 46.8 47.7566 48.76 46.8699 50.44C46.0299 52.12 44.7933 53.52 43.1599 54.64C41.5733 55.76 39.6366 56.6 37.3499 57.16C35.1099 57.72 32.6133 58 29.8599 58H6.54992V9ZM81.0075 48.9C83.1542 48.9 85.1375 48.5033 86.9575 47.71C88.7775 46.9167 90.3175 45.82 91.5775 44.42C92.8842 43.02 93.8875 41.41 94.5875 39.59C95.3342 37.7233 95.7075 35.74 95.7075 33.64V33.5C95.7075 31.4 95.3342 29.4167 94.5875 27.55C93.8875 25.6833 92.8608 24.05 91.5075 22.65C90.2008 21.25 88.6375 20.1533 86.8175 19.36C84.9975 18.52 83.0142 18.1 80.8675 18.1C78.6742 18.1 76.6675 18.4967 74.8475 19.29C73.0742 20.0833 71.5342 21.18 70.2275 22.58C68.9675 23.98 67.9642 25.6133 67.2175 27.48C66.5175 29.3 66.1675 31.26 66.1675 33.36V33.5C66.1675 35.6 66.5175 37.5833 67.2175 39.45C67.9642 41.3167 68.9908 42.95 70.2975 44.35C71.6508 45.75 73.2142 46.87 74.9875 47.71C76.8075 48.5033 78.8142 48.9 81.0075 48.9ZM80.8675 58.84C77.0875 58.84 73.6108 58.1867 70.4375 56.88C67.2642 55.5267 64.5108 53.73 62.1775 51.49C59.8908 49.2033 58.0942 46.5433 56.7875 43.51C55.5275 40.43 54.8975 37.14 54.8975 33.64V33.5C54.8975 30 55.5508 26.7333 56.8575 23.7C58.1642 20.62 59.9608 17.9367 62.2475 15.65C64.5808 13.3167 67.3342 11.4967 70.5075 10.19C73.7275 8.83667 77.2275 8.16 81.0075 8.16C84.7875 8.16 88.2642 8.83667 91.4375 10.19C94.6108 11.4967 97.3408 13.2933 99.6275 15.58C101.961 17.82 103.757 20.48 105.017 23.56C106.324 26.5933 106.977 29.86 106.977 33.36V33.5C106.977 37 106.324 40.29 105.017 43.37C103.711 46.4033 101.891 49.0867 99.5575 51.42C97.2708 53.7067 94.5175 55.5267 91.2975 56.88C88.1242 58.1867 84.6475 58.84 80.8675 58.84ZM116.54 9H127.32V48.2H151.75V58H116.54V9ZM32.4565 138.7C28.7232 138.7 25.0598 138.07 21.4665 136.81C17.8732 135.503 14.6065 133.52 11.6665 130.86L18.0365 123.23C20.2765 125.05 22.5632 126.497 24.8965 127.57C27.2765 128.643 29.8665 129.18 32.6665 129.18C34.9065 129.18 36.6332 128.783 37.8465 127.99C39.1065 127.15 39.7365 126.007 39.7365 124.56V124.42C39.7365 123.72 39.5965 123.113 39.3165 122.6C39.0832 122.04 38.5932 121.527 37.8465 121.06C37.1465 120.593 36.1432 120.127 34.8365 119.66C33.5765 119.193 31.9198 118.703 29.8665 118.19C27.3932 117.583 25.1532 116.907 23.1465 116.16C21.1398 115.413 19.4365 114.503 18.0365 113.43C16.6365 112.31 15.5398 110.933 14.7465 109.3C13.9998 107.667 13.6265 105.637 13.6265 103.21V103.07C13.6265 100.83 14.0465 98.8233 14.8865 97.05C15.7265 95.23 16.8932 93.6667 18.3865 92.36C19.9265 91.0533 21.7465 90.05 23.8465 89.35C25.9465 88.65 28.2565 88.3 30.7765 88.3C34.3698 88.3 37.6598 88.8367 40.6465 89.91C43.6798 90.9833 46.4565 92.5233 48.9765 94.53L43.3765 102.65C41.1832 101.157 39.0365 99.99 36.9365 99.15C34.8365 98.2633 32.7365 97.82 30.6365 97.82C28.5365 97.82 26.9498 98.24 25.8765 99.08C24.8498 99.8733 24.3365 100.877 24.3365 102.09V102.23C24.3365 103.023 24.4765 103.723 24.7565 104.33C25.0832 104.89 25.6432 105.403 26.4365 105.87C27.2298 106.337 28.3032 106.78 29.6565 107.2C31.0565 107.62 32.8065 108.11 34.9065 108.67C37.3798 109.323 39.5732 110.07 41.4865 110.91C43.4465 111.703 45.0798 112.683 46.3865 113.85C47.7398 114.97 48.7432 116.3 49.3965 117.84C50.0965 119.38 50.4465 121.223 50.4465 123.37V123.51C50.4465 125.937 50.0032 128.107 49.1165 130.02C48.2298 131.887 46.9931 133.473 45.4065 134.78C43.8198 136.04 41.9298 137.02 39.7365 137.72C37.5432 138.373 35.1165 138.7 32.4565 138.7ZM87.9419 117.49L81.4319 101.6L74.9219 117.49H87.9419ZM76.6019 88.65H86.5419L107.542 138H96.2719L91.7919 127.01H71.0719L66.5919 138H55.6019L76.6019 88.65ZM132.535 138.7C128.801 138.7 125.138 138.07 121.545 136.81C117.951 135.503 114.685 133.52 111.745 130.86L118.115 123.23C120.355 125.05 122.641 126.497 124.975 127.57C127.355 128.643 129.945 129.18 132.745 129.18C134.985 129.18 136.711 128.783 137.925 127.99C139.185 127.15 139.815 126.007 139.815 124.56V124.42C139.815 123.72 139.675 123.113 139.395 122.6C139.161 122.04 138.671 121.527 137.925 121.06C137.225 120.593 136.221 120.127 134.915 119.66C133.655 119.193 131.998 118.703 129.945 118.19C127.471 117.583 125.231 116.907 123.225 116.16C121.218 115.413 119.515 114.503 118.115 113.43C116.715 112.31 115.618 110.933 114.825 109.3C114.078 107.667 113.705 105.637 113.705 103.21V103.07C113.705 100.83 114.125 98.8233 114.965 97.05C115.805 95.23 116.971 93.6667 118.465 92.36C120.005 91.0533 121.825 90.05 123.925 89.35C126.025 88.65 128.335 88.3 130.855 88.3C134.448 88.3 137.738 88.8367 140.725 89.91C143.758 90.9833 146.535 92.5233 149.055 94.53L143.455 102.65C141.261 101.157 139.115 99.99 137.015 99.15C134.915 98.2633 132.815 97.82 130.715 97.82C128.615 97.82 127.028 98.24 125.955 99.08C124.928 99.8733 124.415 100.877 124.415 102.09V102.23C124.415 103.023 124.555 103.723 124.835 104.33C125.161 104.89 125.721 105.403 126.515 105.87C127.308 106.337 128.381 106.78 129.735 107.2C131.135 107.62 132.885 108.11 134.985 108.67C137.458 109.323 139.651 110.07 141.565 110.91C143.525 111.703 145.158 112.683 146.465 113.85C147.818 114.97 148.821 116.3 149.475 117.84C150.175 119.38 150.525 121.223 150.525 123.37V123.51C150.525 125.937 150.081 128.107 149.195 130.02C148.308 131.887 147.071 133.473 145.485 134.78C143.898 136.04 142.008 137.02 139.815 137.72C137.621 138.373 135.195 138.7 132.535 138.7Z" fill="#E0DA9C"/>
<path d="M35.4599 47.29L36.5146 48.9893L36.5355 48.9764L36.556 48.9629L35.4599 47.29ZM35.5999 39.24L34.372 40.8187L34.3906 40.8331L34.4095 40.8471L35.5999 39.24ZM17.0499 37.77V35.77H15.0499V37.77H17.0499ZM17.0499 48.55H15.0499V50.55H17.0499V48.55ZM32.6599 27.62L33.6459 29.36L33.6676 29.3478L33.6889 29.335L32.6599 27.62ZM32.9399 19.78L31.7599 21.3948L31.7805 21.4098L31.8015 21.4244L32.9399 19.78ZM17.0499 18.45V16.45H15.0499V18.45H17.0499ZM17.0499 28.81H15.0499V30.81H17.0499V28.81ZM6.54992 9V7H4.54992V9H6.54992ZM44.9099 25.52L43.0209 24.863L43.008 24.9001L42.9966 24.9377L44.9099 25.52ZM43.5099 28.46L41.8593 27.3306L41.8525 27.3406L41.8458 27.3506L43.5099 28.46ZM41.4799 30.7L40.2085 29.1561L40.1854 29.1752L40.1629 29.1948L41.4799 30.7ZM39.0299 32.38L38.0984 30.6102L34.162 32.682L38.3243 34.2514L39.0299 32.38ZM45.7499 36.79L44.2448 38.107L44.253 38.1165L44.2614 38.1258L45.7499 36.79ZM46.8699 50.44L45.1012 49.5065L45.0909 49.5259L45.0811 49.5456L46.8699 50.44ZM43.1599 54.64L42.0289 52.9905L42.0177 52.9982L42.0066 53.0061L43.1599 54.64ZM37.3499 57.16L36.8742 55.2174L36.8648 55.2197L37.3499 57.16ZM6.54992 58H4.54992V60H6.54992V58ZM29.8599 50.55C32.4408 50.55 34.7249 50.1002 36.5146 48.9893L34.4052 45.5907C33.4883 46.1598 32.0391 46.55 29.8599 46.55V50.55ZM36.556 48.9629C38.5515 47.6555 39.4899 45.6253 39.4899 43.23H35.4899C35.4899 44.4747 35.075 45.1512 34.3639 45.6171L36.556 48.9629ZM39.4899 43.23V43.09H35.4899V43.23H39.4899ZM39.4899 43.09C39.4899 40.854 38.584 38.9615 36.7904 37.6329L34.4095 40.8471C35.1358 41.3852 35.4899 42.0594 35.4899 43.09H39.4899ZM36.8278 37.6613C35.037 36.2685 32.4549 35.77 29.5099 35.77V39.77C32.1649 39.77 33.6428 40.2515 34.372 40.8187L36.8278 37.6613ZM29.5099 35.77H17.0499V39.77H29.5099V35.77ZM15.0499 37.77V48.55H19.0499V37.77H15.0499ZM17.0499 50.55H29.8599V46.55H17.0499V50.55ZM26.9899 30.81C29.5617 30.81 31.835 30.3863 33.6459 29.36L31.6739 25.88C30.6849 26.4404 29.1782 26.81 26.9899 26.81V30.81ZM33.6889 29.335C35.7698 28.0864 36.7599 26.0559 36.7599 23.63H32.7599C32.7599 24.8441 32.35 25.4736 31.6309 25.905L33.6889 29.335ZM36.7599 23.63V23.49H32.7599V23.63H36.7599ZM36.7599 23.49C36.7599 21.2823 35.8953 19.3935 34.0783 18.1356L31.8015 21.4244C32.4112 21.8465 32.7599 22.431 32.7599 23.49H36.7599ZM34.12 18.1652C32.4273 16.9282 30.1923 16.45 27.6899 16.45V20.45C29.7609 20.45 31.0259 20.8584 31.7599 21.3948L34.12 18.1652ZM27.6899 16.45H17.0499V20.45H27.6899V16.45ZM15.0499 18.45V28.81H19.0499V18.45H15.0499ZM17.0499 30.81H26.9899V26.81H17.0499V30.81ZM6.54992 11H29.2999V7H6.54992V11ZM29.2999 11C34.6218 11 38.3014 12.3599 40.6957 14.7542L43.5241 11.9258C40.1318 8.53344 35.2714 7 29.2999 7V11ZM40.6957 14.7542C42.5419 16.6004 43.4699 18.86 43.4699 21.67H47.4699C47.4699 17.8534 46.158 14.5596 43.5241 11.9258L40.6957 14.7542ZM43.4699 21.67V21.81H47.4699V21.67H43.4699ZM43.4699 21.81C43.4699 23.0363 43.306 24.0434 43.0209 24.863L46.7989 26.177C47.2605 24.8499 47.4699 23.3837 47.4699 21.81H43.4699ZM42.9966 24.9377C42.7265 25.825 42.3461 26.6192 41.8593 27.3306L45.1605 29.5894C45.8871 28.5275 46.44 27.3616 46.8233 26.1023L42.9966 24.9377ZM41.8458 27.3506C41.3967 28.0244 40.8531 28.6253 40.2085 29.1561L42.7513 32.2439C43.6934 31.468 44.5032 30.5756 45.174 29.5694L41.8458 27.3506ZM40.1629 29.1948C39.5351 29.7442 38.8481 30.2156 38.0984 30.6102L39.9614 34.1498C40.9851 33.611 41.9314 32.9625 42.7969 32.2052L40.1629 29.1948ZM38.3243 34.2514C40.9319 35.2346 42.8721 36.5382 44.2448 38.107L47.2551 35.473C45.3611 33.3084 42.8213 31.6721 39.7355 30.5086L38.3243 34.2514ZM44.2614 38.1258C45.4681 39.4704 46.1999 41.4782 46.1999 44.42H50.1999C50.1999 40.8285 49.2984 37.7496 47.2384 35.4542L44.2614 38.1258ZM46.1999 44.42V44.56H50.1999V44.42H46.1999ZM46.1999 44.56C46.1999 46.5329 45.8109 48.1617 45.1012 49.5065L48.6387 51.3735C49.7023 49.3583 50.1999 47.0671 50.1999 44.56H46.1999ZM45.0811 49.5456C44.4011 50.9055 43.3982 52.0516 42.0289 52.9905L44.291 56.2895C46.1883 54.9884 47.6588 53.3345 48.6588 51.3344L45.0811 49.5456ZM42.0066 53.0061C40.6628 53.9546 38.9678 54.7047 36.8742 55.2174L37.8257 59.1026C40.3053 58.4953 42.4837 57.5654 44.3133 56.2739L42.0066 53.0061ZM36.8648 55.2197C34.8104 55.7333 32.48 56 29.8599 56V60C32.7465 60 35.4094 59.7067 37.835 59.1003L36.8648 55.2197ZM29.8599 56H6.54992V60H29.8599V56ZM8.54992 58V9H4.54992V58H8.54992ZM86.9575 47.71L86.1583 45.8766V45.8766L86.9575 47.71ZM91.5775 44.42L90.1154 43.0554L90.103 43.0686L90.0909 43.0821L91.5775 44.42ZM94.5875 39.59L92.7305 38.8472L92.7256 38.8596L92.7208 38.872L94.5875 39.59ZM94.5875 27.55L92.7148 28.2522L92.7225 28.2726L92.7305 28.2928L94.5875 27.55ZM91.5075 22.65L90.0454 24.0146L90.0573 24.0274L90.0695 24.04L91.5075 22.65ZM86.8175 19.36L85.9794 21.1759L85.9988 21.1849L86.0183 21.1934L86.8175 19.36ZM74.8475 19.29L74.0483 17.4566L74.0395 17.4604L74.0308 17.4644L74.8475 19.29ZM70.2275 22.58L68.7654 21.2154L68.753 21.2286L68.7409 21.2421L70.2275 22.58ZM67.2175 27.48L65.3605 26.7372L65.3556 26.7496L65.3508 26.762L67.2175 27.48ZM67.2175 39.45L65.3448 40.1522L65.3525 40.1726L65.3605 40.1928L67.2175 39.45ZM70.2975 44.35L68.8354 45.7146L68.8473 45.7274L68.8595 45.74L70.2975 44.35ZM74.9875 47.71L74.1313 49.5175L74.1596 49.5309L74.1883 49.5434L74.9875 47.71ZM70.4375 56.88L69.6529 58.7197L69.6644 58.7246L69.676 58.7294L70.4375 56.88ZM62.1775 51.49L60.7633 52.9042L60.7777 52.9186L60.7924 52.9328L62.1775 51.49ZM56.7875 43.51L54.9364 44.2673L54.9434 44.2843L54.9507 44.3012L56.7875 43.51ZM56.8575 23.7L58.6944 24.4913L58.6987 24.4811L56.8575 23.7ZM62.2475 15.65L60.8333 14.2358V14.2358L62.2475 15.65ZM70.5075 10.19L71.269 12.0394L71.2757 12.0366L71.2824 12.0338L70.5075 10.19ZM91.4375 10.19L90.6529 12.0297L90.6644 12.0346L90.676 12.0394L91.4375 10.19ZM99.6275 15.58L98.2133 16.9942L98.2277 17.0086L98.2424 17.0228L99.6275 15.58ZM105.018 23.56L103.166 24.3173L103.173 24.3343L103.181 24.3512L105.018 23.56ZM105.018 43.37L106.854 44.1613L106.859 44.1511L105.018 43.37ZM99.5575 51.42L98.1433 50.0058L99.5575 51.42ZM91.2975 56.88L92.059 58.7294L92.0657 58.7266L92.0724 58.7238L91.2975 56.88ZM81.0075 50.9C83.4066 50.9 85.6646 50.4553 87.7567 49.5434L86.1583 45.8766C84.6104 46.5514 82.9017 46.9 81.0075 46.9V50.9ZM87.7567 49.5434C89.8241 48.6422 91.6027 47.3817 93.0641 45.7579L90.0909 43.0821C89.0323 44.2583 87.7309 45.1911 86.1583 45.8766L87.7567 49.5434ZM93.0396 45.7846C94.5246 44.1936 95.6638 42.363 96.4542 40.308L92.7208 38.872C92.1112 40.457 91.2437 41.8464 90.1154 43.0554L93.0396 45.7846ZM96.4445 40.3328C97.2898 38.2194 97.7075 35.9829 97.7075 33.64H93.7075C93.7075 35.4971 93.3785 37.2273 92.7305 38.8472L96.4445 40.3328ZM97.7075 33.64V33.5H93.7075V33.64H97.7075ZM97.7075 33.5C97.7075 31.1571 97.2898 28.9206 96.4445 26.8072L92.7305 28.2928C93.3785 29.9127 93.7075 31.6429 93.7075 33.5H97.7075ZM96.4602 26.8478C95.6663 24.7307 94.4939 22.8618 92.9455 21.26L90.0695 24.04C91.2278 25.2382 92.1087 26.6359 92.7148 28.2522L96.4602 26.8478ZM92.9696 21.2854C91.4695 19.6781 89.678 18.4251 87.6167 17.5266L86.0183 21.1934C87.597 21.8816 88.9322 22.8219 90.0454 24.0146L92.9696 21.2854ZM87.6556 17.5441C85.5545 16.5743 83.2827 16.1 80.8675 16.1V20.1C82.7457 20.1 84.4405 20.4657 85.9794 21.1759L87.6556 17.5441ZM80.8675 16.1C78.4281 16.1 76.1457 16.5424 74.0483 17.4566L75.6467 21.1234C77.1893 20.451 78.9202 20.1 80.8675 20.1V16.1ZM74.0308 17.4644C72.0173 18.3651 70.2569 19.6173 68.7654 21.2154L71.6896 23.9446C72.8114 22.7427 74.131 21.8015 75.6642 21.1156L74.0308 17.4644ZM68.7409 21.2421C67.313 22.8286 66.1887 24.6667 65.3605 26.7372L69.0745 28.2228C69.7396 26.5599 70.622 25.1314 71.7141 23.9179L68.7409 21.2421ZM65.3508 26.762C64.5561 28.8282 64.1675 31.0335 64.1675 33.36H68.1675C68.1675 31.4865 68.4789 29.7718 69.0842 28.198L65.3508 26.762ZM64.1675 33.36V33.5H68.1675V33.36H64.1675ZM64.1675 33.5C64.1675 35.8269 64.5562 38.0492 65.3448 40.1522L69.0902 38.7478C68.4788 37.1174 68.1675 35.3731 68.1675 33.5H64.1675ZM65.3605 40.1928C66.1945 42.2778 67.3514 44.1247 68.8354 45.7146L71.7596 42.9854C70.6303 41.7753 69.7338 40.3556 69.0745 38.7072L65.3605 40.1928ZM68.8595 45.74C70.3814 47.3144 72.1422 48.5753 74.1313 49.5175L75.8437 45.9025C74.2861 45.1647 72.9202 44.1856 71.7355 42.96L68.8595 45.74ZM74.1883 49.5434C76.2857 50.4576 78.5681 50.9 81.0075 50.9V46.9C79.0602 46.9 77.3293 46.549 75.7867 45.8766L74.1883 49.5434ZM80.8675 56.84C77.3222 56.84 74.1073 56.2282 71.199 55.0306L69.676 58.7294C73.1143 60.1451 76.8529 60.84 80.8675 60.84V56.84ZM71.2221 55.0403C68.2563 53.7755 65.71 52.1088 63.5626 50.0472L60.7924 52.9328C63.3116 55.3512 66.272 57.2778 69.6529 58.7197L71.2221 55.0403ZM63.5917 50.0758C61.4879 47.972 59.833 45.5246 58.6243 42.7188L54.9507 44.3012C56.3553 47.562 58.2937 50.4347 60.7633 52.9042L63.5917 50.0758ZM58.6386 42.7527C57.482 39.9254 56.8975 36.894 56.8975 33.64H52.8975C52.8975 37.386 53.573 40.9346 54.9364 44.2673L58.6386 42.7527ZM56.8975 33.64V33.5H52.8975V33.64H56.8975ZM56.8975 33.5C56.8975 30.2556 57.5017 27.2599 58.6943 24.4912L55.0207 22.9088C53.6 26.2067 52.8975 29.7444 52.8975 33.5H56.8975ZM58.6987 24.4811C59.9085 21.6293 61.563 19.1629 63.6617 17.0642L60.8333 14.2358C58.3587 16.7104 56.4198 19.6107 55.0163 22.9189L58.6987 24.4811ZM63.6617 17.0642C65.8009 14.9251 68.3299 13.2496 71.269 12.0394L69.746 8.34064C66.3385 9.74375 63.3608 11.7083 60.8333 14.2358L63.6617 17.0642ZM71.2824 12.0338C74.2375 10.7918 77.4715 10.16 81.0075 10.16V6.16C76.9835 6.16 73.2175 6.88156 69.7326 8.34622L71.2824 12.0338ZM81.0075 10.16C84.5438 10.16 87.7505 10.7919 90.6529 12.0297L92.2221 8.35031C88.7779 6.88146 85.0312 6.16 81.0075 6.16V10.16ZM90.676 12.0394C93.6203 13.2517 96.1246 14.9055 98.2133 16.9942L101.042 14.1658C98.5571 11.6812 95.6013 9.7416 92.199 8.34064L90.676 12.0394ZM98.2424 17.0228C100.368 19.0637 102.009 21.4882 103.166 24.3173L106.869 22.8027C105.506 19.4718 103.553 16.5763 101.013 14.1372L98.2424 17.0228ZM103.181 24.3512C104.373 27.1199 104.978 30.1156 104.978 33.36H108.978C108.978 29.6044 108.275 26.0667 106.854 22.7688L103.181 24.3512ZM104.978 33.36V33.5H108.978V33.36H104.978ZM104.978 33.5C104.978 36.7442 104.373 39.7673 103.176 42.5889L106.859 44.1511C108.275 40.8127 108.978 37.2558 108.978 33.5H104.978ZM103.181 42.5788C101.974 45.3798 100.297 47.8517 98.1433 50.0058L100.972 52.8342C103.484 50.3217 105.448 47.4269 106.854 44.1612L103.181 42.5788ZM98.1433 50.0058C96.0541 52.095 93.523 53.7752 90.5226 55.0362L92.0724 58.7238C95.512 57.2781 98.4876 55.3184 100.972 52.8342L98.1433 50.0058ZM90.536 55.0306C87.6277 56.2282 84.4128 56.84 80.8675 56.84V60.84C84.8821 60.84 88.6207 60.1451 92.059 58.7294L90.536 55.0306ZM116.54 9V7H114.54V9H116.54ZM127.32 9H129.32V7H127.32V9ZM127.32 48.2H125.32V50.2H127.32V48.2ZM151.75 48.2H153.75V46.2H151.75V48.2ZM151.75 58V60H153.75V58H151.75ZM116.54 58H114.54V60H116.54V58ZM116.54 11H127.32V7H116.54V11ZM125.32 9V48.2H129.32V9H125.32ZM127.32 50.2H151.75V46.2H127.32V50.2ZM149.75 48.2V58H153.75V48.2H149.75ZM151.75 56H116.54V60H151.75V56ZM118.54 58V9H114.54V58H118.54ZM21.4665 136.81L20.783 138.69L20.7938 138.694L20.8047 138.697L21.4665 136.81ZM11.6665 130.86L10.1312 129.578L8.89947 131.054L10.3247 132.343L11.6665 130.86ZM18.0365 123.23L19.2977 121.678L17.766 120.433L16.5012 121.948L18.0365 123.23ZM24.8965 127.57L24.0607 129.387L24.0675 129.39L24.0743 129.393L24.8965 127.57ZM37.8465 127.99L38.941 129.664L38.9485 129.659L38.9559 129.654L37.8465 127.99ZM39.3165 122.6L37.4703 123.369L37.5106 123.466L37.5607 123.558L39.3165 122.6ZM37.8465 121.06L36.7371 122.724L36.7616 122.74L36.7865 122.756L37.8465 121.06ZM34.8365 119.66L34.1419 121.535L34.1528 121.54L34.1638 121.543L34.8365 119.66ZM29.8665 118.19L30.3516 116.25L30.3429 116.248L29.8665 118.19ZM23.1465 116.16L23.844 114.286L23.1465 116.16ZM18.0365 113.43L16.7871 114.992L16.8032 115.005L16.8196 115.017L18.0365 113.43ZM14.7465 109.3L12.9275 110.132L12.9373 110.153L12.9475 110.174L14.7465 109.3ZM14.8865 97.05L16.694 97.9062L16.6982 97.8972L16.7024 97.8881L14.8865 97.05ZM18.3865 92.36L17.0925 90.835L17.0809 90.8448L17.0695 90.8548L18.3865 92.36ZM23.8465 89.35L23.214 87.4526L23.8465 89.35ZM40.6465 89.91L39.9701 91.7922L39.9793 91.7954L40.6465 89.91ZM48.9765 94.53L50.6229 95.6655L51.6829 94.1285L50.2223 92.9654L48.9765 94.53ZM43.3765 102.65L42.2509 104.303L43.8942 105.422L45.0229 103.785L43.3765 102.65ZM36.9365 99.15L36.1585 100.993L36.1761 101L36.1937 101.007L36.9365 99.15ZM25.8765 99.08L27.0994 100.663L27.1091 100.655L25.8765 99.08ZM24.7565 104.33L22.9406 105.168L22.9807 105.255L23.0289 105.338L24.7565 104.33ZM26.4365 105.87L25.4224 107.594L25.4224 107.594L26.4365 105.87ZM29.6565 107.2L29.0637 109.11L29.0727 109.113L29.0818 109.116L29.6565 107.2ZM34.9065 108.67L34.3912 110.602L34.3957 110.604L34.9065 108.67ZM41.4865 110.91L40.6825 112.741L40.7091 112.753L40.7361 112.764L41.4865 110.91ZM46.3865 113.85L45.0545 115.342L45.0824 115.367L45.1113 115.391L46.3865 113.85ZM49.3965 117.84L47.5553 118.621L47.5652 118.644L47.5758 118.668L49.3965 117.84ZM49.1165 130.02L50.923 130.878L50.9271 130.87L50.9311 130.861L49.1165 130.02ZM45.4065 134.78L46.6502 136.346L46.6642 136.335L46.6779 136.324L45.4065 134.78ZM39.7365 137.72L40.3074 139.637L40.3261 139.631L40.3446 139.625L39.7365 137.72ZM32.4565 136.7C28.953 136.7 25.5133 136.11 22.1283 134.923L20.8047 138.697C24.6064 140.03 28.4933 140.7 32.4565 140.7V136.7ZM22.15 134.93C18.8086 133.715 15.7638 131.87 13.0083 129.377L10.3247 132.343C13.4492 135.17 16.9377 137.291 20.783 138.69L22.15 134.93ZM13.2018 132.142L19.5718 124.512L16.5012 121.948L10.1312 129.578L13.2018 132.142ZM16.7753 124.782C19.1296 126.695 21.5576 128.236 24.0607 129.387L25.7323 125.753C23.5687 124.758 21.4233 123.405 19.2977 121.678L16.7753 124.782ZM24.0743 129.393C26.7311 130.591 29.6038 131.18 32.6665 131.18V127.18C30.1291 127.18 27.8219 126.695 25.7187 125.747L24.0743 129.393ZM32.6665 131.18C35.0991 131.18 37.2698 130.757 38.941 129.664L36.752 126.316C35.9965 126.81 34.7139 127.18 32.6665 127.18V131.18ZM38.9559 129.654C40.7412 128.464 41.7365 126.712 41.7365 124.56H37.7365C37.7365 125.301 37.4718 125.836 36.7371 126.326L38.9559 129.654ZM41.7365 124.56V124.42H37.7365V124.56H41.7365ZM41.7365 124.42C41.7365 123.451 41.5413 122.502 41.0723 121.642L37.5607 123.558C37.6517 123.724 37.7365 123.989 37.7365 124.42H41.7365ZM41.1626 121.831C40.7124 120.75 39.8531 119.956 38.9065 119.364L36.7865 122.756C37.3332 123.098 37.4539 123.33 37.4703 123.369L41.1626 121.831ZM38.9559 119.396C38.0607 118.799 36.8842 118.268 35.5092 117.777L34.1638 121.543C35.4021 121.986 36.2323 122.388 36.7371 122.724L38.9559 119.396ZM35.5311 117.785C34.1752 117.282 32.4405 116.772 30.3516 116.25L29.3814 120.13C31.3991 120.635 32.9778 121.104 34.1419 121.535L35.5311 117.785ZM30.3429 116.248C27.931 115.656 25.7663 115.001 23.844 114.286L22.449 118.034C24.54 118.812 26.8553 119.511 29.39 120.132L30.3429 116.248ZM23.844 114.286C21.9854 113.594 20.466 112.772 19.2533 111.843L16.8196 115.017C18.407 116.234 20.2943 117.233 22.449 118.034L23.844 114.286ZM19.2859 111.868C18.121 110.936 17.2107 109.796 16.5455 108.426L12.9475 110.174C13.8689 112.071 15.152 113.684 16.7871 114.992L19.2859 111.868ZM16.5654 108.468C15.9722 107.171 15.6265 105.445 15.6265 103.21H11.6265C11.6265 105.828 12.0274 108.163 12.9275 110.132L16.5654 108.468ZM15.6265 103.21V103.07H11.6265V103.21H15.6265ZM15.6265 103.07C15.6265 101.084 15.9975 99.3764 16.694 97.9062L13.079 96.1938C12.0954 98.2703 11.6265 100.576 11.6265 103.07H15.6265ZM16.7024 97.8881C17.426 96.3203 18.4236 94.985 19.7035 93.8652L17.0695 90.8548C15.3627 92.3483 14.027 94.1397 13.0706 96.2119L16.7024 97.8881ZM19.6804 93.885C21.0078 92.7588 22.5978 91.8744 24.4789 91.2474L23.214 87.4526C20.8951 88.2256 18.8452 89.3479 17.0925 90.835L19.6804 93.885ZM24.4789 91.2474C26.349 90.624 28.4422 90.3 30.7765 90.3V86.3C28.0708 86.3 25.544 86.676 23.214 87.4526L24.4789 91.2474ZM30.7765 90.3C34.1694 90.3 37.2271 90.8064 39.9701 91.7922L41.3229 88.0279C38.0926 86.867 34.5702 86.3 30.7765 86.3V90.3ZM39.9793 91.7954C42.803 92.7946 45.3842 94.2261 47.7306 96.0946L50.2223 92.9654C47.5288 90.8206 44.5566 89.1721 41.3136 88.0246L39.9793 91.7954ZM47.3301 93.3945L41.7301 101.515L45.0229 103.785L50.6229 95.6655L47.3301 93.3945ZM44.5021 100.997C42.2089 99.4355 39.9347 98.1952 37.6793 97.293L36.1937 101.007C38.1383 101.785 40.1574 102.878 42.2509 104.303L44.5021 100.997ZM37.7144 97.3075C35.3895 96.3259 33.0258 95.82 30.6365 95.82V99.82C32.4471 99.82 34.2835 100.201 36.1585 100.993L37.7144 97.3075ZM30.6365 95.82C28.3181 95.82 26.2144 96.2759 24.6439 97.505L27.1091 100.655C27.6853 100.204 28.7549 99.82 30.6365 99.82V95.82ZM24.6536 97.4974C23.1761 98.6391 22.3365 100.209 22.3365 102.09H26.3365C26.3365 101.544 26.5235 101.108 27.0994 100.663L24.6536 97.4974ZM22.3365 102.09V102.23H26.3365V102.09H22.3365ZM22.3365 102.23C22.3365 103.259 22.5187 104.254 22.9406 105.168L26.5724 103.492C26.4343 103.193 26.3365 102.787 26.3365 102.23H22.3365ZM23.0289 105.338C23.5856 106.292 24.4507 107.022 25.4224 107.594L27.4505 104.146C26.8356 103.784 26.5807 103.488 26.484 103.322L23.0289 105.338ZM25.4224 107.594C26.3995 108.169 27.6331 108.666 29.0637 109.11L30.2493 105.29C28.9732 104.894 28.0602 104.505 27.4505 104.146L25.4224 107.594ZM29.0818 109.116C30.5085 109.544 32.2798 110.039 34.3912 110.602L35.4218 106.738C33.3331 106.181 31.6045 105.696 30.2312 105.284L29.0818 109.116ZM34.3957 110.604C36.7901 111.236 38.8824 111.951 40.6825 112.741L42.2905 109.079C40.2639 108.189 37.9695 107.411 35.4173 106.736L34.3957 110.604ZM40.7361 112.764C42.5257 113.488 43.9508 114.356 45.0545 115.342L47.7185 112.358C46.2088 111.01 44.3673 109.918 42.2369 109.056L40.7361 112.764ZM45.1113 115.391C46.2306 116.317 47.0334 117.391 47.5553 118.621L51.2376 117.059C50.4529 115.209 49.249 113.623 47.6616 112.309L45.1113 115.391ZM47.5758 118.668C48.1303 119.888 48.4465 121.435 48.4465 123.37H52.4465C52.4465 121.012 52.0626 118.872 51.2172 117.012L47.5758 118.668ZM48.4465 123.37V123.51H52.4465V123.37H48.4465ZM48.4465 123.51C48.4465 125.69 48.0493 127.566 47.3019 129.179L50.9311 130.861C51.957 128.647 52.4465 126.183 52.4465 123.51H48.4465ZM47.3099 129.162C46.5485 130.765 45.4939 132.117 44.1351 133.236L46.6779 136.324C48.4924 134.83 49.9112 133.008 50.923 130.878L47.3099 129.162ZM44.1627 133.214C42.7897 134.304 41.1222 135.178 39.1284 135.815L40.3446 139.625C42.7374 138.862 44.8499 137.776 46.6502 136.346L44.1627 133.214ZM39.1655 135.803C37.1847 136.393 34.9537 136.7 32.4565 136.7V140.7C35.2792 140.7 37.9016 140.353 40.3074 139.637L39.1655 135.803ZM87.9419 117.49V119.49H90.9226L89.7926 116.732L87.9419 117.49ZM81.4319 101.6L83.2826 100.842L81.4319 96.3245L79.5812 100.842L81.4319 101.6ZM74.9219 117.49L73.0712 116.732L71.9412 119.49H74.9219V117.49ZM76.6019 88.65V86.65H75.2794L74.7616 87.8669L76.6019 88.65ZM86.5419 88.65L88.3822 87.8669L87.8644 86.65H86.5419V88.65ZM107.542 138V140H110.566L109.382 137.217L107.542 138ZM96.2719 138L94.4198 138.755L94.9274 140H96.2719V138ZM91.7919 127.01L93.6439 126.255L93.1364 125.01H91.7919V127.01ZM71.0719 127.01V125.01H69.7274L69.2198 126.255L71.0719 127.01ZM66.5919 138V140H67.9364L68.4439 138.755L66.5919 138ZM55.6019 138L53.7616 137.217L52.5773 140H55.6019V138ZM89.7926 116.732L83.2826 100.842L79.5812 102.358L86.0912 118.248L89.7926 116.732ZM79.5812 100.842L73.0712 116.732L76.7726 118.248L83.2826 102.358L79.5812 100.842ZM74.9219 119.49H87.9419V115.49H74.9219V119.49ZM76.6019 90.65H86.5419V86.65H76.6019V90.65ZM84.7016 89.4331L105.702 138.783L109.382 137.217L88.3822 87.8669L84.7016 89.4331ZM107.542 136H96.2719V140H107.542V136ZM98.1239 137.245L93.6439 126.255L89.9398 127.765L94.4198 138.755L98.1239 137.245ZM91.7919 125.01H71.0719V129.01H91.7919V125.01ZM69.2198 126.255L64.7398 137.245L68.4439 138.755L72.9239 127.765L69.2198 126.255ZM66.5919 136H55.6019V140H66.5919V136ZM57.4422 138.783L78.4422 89.4331L74.7616 87.8669L53.7616 137.217L57.4422 138.783ZM121.545 136.81L120.861 138.69L120.872 138.694L120.883 138.697L121.545 136.81ZM111.745 130.86L110.209 129.578L108.978 131.054L110.403 132.343L111.745 130.86ZM118.115 123.23L119.376 121.678L117.844 120.433L116.579 121.948L118.115 123.23ZM124.975 127.57L124.139 129.387L124.146 129.39L124.152 129.393L124.975 127.57ZM137.925 127.99L139.019 129.664L139.027 129.659L139.034 129.654L137.925 127.99ZM139.395 122.6L137.548 123.369L137.589 123.466L137.639 123.558L139.395 122.6ZM137.925 121.06L136.815 122.724L136.84 122.74L136.865 122.756L137.925 121.06ZM134.915 119.66L134.22 121.535L134.231 121.54L134.242 121.543L134.915 119.66ZM129.945 118.19L130.43 116.25L130.421 116.248L129.945 118.19ZM123.225 116.16L123.922 114.286H123.922L123.225 116.16ZM118.115 113.43L116.865 114.992L116.881 115.005L116.898 115.017L118.115 113.43ZM114.825 109.3L113.006 110.132L113.015 110.153L113.026 110.174L114.825 109.3ZM114.965 97.05L116.772 97.9062L116.776 97.8972L116.781 97.8881L114.965 97.05ZM118.465 92.36L117.171 90.835L117.159 90.8448L117.148 90.8548L118.465 92.36ZM123.925 89.35L123.292 87.4526L123.925 89.35ZM140.725 89.91L140.048 91.7922L140.057 91.7954L140.725 89.91ZM149.055 94.53L150.701 95.6655L151.761 94.1285L150.3 92.9654L149.055 94.53ZM143.455 102.65L142.329 104.303L143.972 105.422L145.101 103.785L143.455 102.65ZM137.015 99.15L136.237 100.993L136.254 101L136.272 101.007L137.015 99.15ZM125.955 99.08L127.178 100.663L127.187 100.655L125.955 99.08ZM124.835 104.33L123.019 105.168L123.059 105.255L123.107 105.338L124.835 104.33ZM126.515 105.87L125.501 107.594L125.501 107.594L126.515 105.87ZM129.735 107.2L129.142 109.11L129.151 109.113L129.16 109.116L129.735 107.2ZM134.985 108.67L134.469 110.602L134.474 110.604L134.985 108.67ZM141.565 110.91L140.761 112.741L140.787 112.753L140.814 112.764L141.565 110.91ZM146.465 113.85L145.133 115.342L145.161 115.367L145.189 115.391L146.465 113.85ZM149.475 117.84L147.633 118.621L147.643 118.644L147.654 118.668L149.475 117.84ZM149.195 130.02L151.001 130.878L151.005 130.87L151.009 130.861L149.195 130.02ZM145.485 134.78L146.728 136.346L146.742 136.335L146.756 136.324L145.485 134.78ZM139.815 137.72L140.386 139.637L140.404 139.631L140.423 139.625L139.815 137.72ZM132.535 136.7C129.031 136.7 125.591 136.11 122.206 134.923L120.883 138.697C124.685 140.03 128.571 140.7 132.535 140.7V136.7ZM122.228 134.93C118.887 133.715 115.842 131.87 113.086 129.377L110.403 132.343C113.527 135.17 117.016 137.291 120.861 138.69L122.228 134.93ZM113.28 132.142L119.65 124.512L116.579 121.948L110.209 129.578L113.28 132.142ZM116.853 124.782C119.208 126.695 121.636 128.236 124.139 129.387L125.81 125.753C123.647 124.758 121.501 123.405 119.376 121.678L116.853 124.782ZM124.152 129.393C126.809 130.591 129.682 131.18 132.745 131.18V127.18C130.207 127.18 127.9 126.695 125.797 125.747L124.152 129.393ZM132.745 131.18C135.177 131.18 137.348 130.757 139.019 129.664L136.83 126.316C136.075 126.81 134.792 127.18 132.745 127.18V131.18ZM139.034 129.654C140.819 128.464 141.815 126.712 141.815 124.56H137.815C137.815 125.301 137.55 125.836 136.815 126.326L139.034 129.654ZM141.815 124.56V124.42H137.815V124.56H141.815ZM141.815 124.42C141.815 123.451 141.619 122.502 141.15 121.642L137.639 123.558C137.73 123.724 137.815 123.989 137.815 124.42H141.815ZM141.241 121.831C140.791 120.75 139.931 119.956 138.985 119.364L136.865 122.756C137.411 123.098 137.532 123.33 137.548 123.369L141.241 121.831ZM139.034 119.396C138.139 118.799 136.962 118.268 135.587 117.777L134.242 121.543C135.48 121.986 136.31 122.388 136.815 122.724L139.034 119.396ZM135.609 117.785C134.253 117.282 132.519 116.772 130.43 116.25L129.46 120.13C131.477 120.635 133.056 121.104 134.22 121.535L135.609 117.785ZM130.421 116.248C128.009 115.656 125.844 115.001 123.922 114.286L122.527 118.034C124.618 118.812 126.933 119.511 129.468 120.132L130.421 116.248ZM123.922 114.286C122.063 113.594 120.544 112.772 119.331 111.843L116.898 115.017C118.485 116.234 120.372 117.233 122.527 118.034L123.922 114.286ZM119.364 111.868C118.199 110.936 117.289 109.796 116.624 108.426L113.026 110.174C113.947 112.071 115.23 113.684 116.865 114.992L119.364 111.868ZM116.644 108.468C116.05 107.171 115.705 105.445 115.705 103.21H111.705C111.705 105.828 112.106 108.163 113.006 110.132L116.644 108.468ZM115.705 103.21V103.07H111.705V103.21H115.705ZM115.705 103.07C115.705 101.084 116.076 99.3764 116.772 97.9062L113.157 96.1938C112.174 98.2703 111.705 100.576 111.705 103.07H115.705ZM116.781 97.8881C117.504 96.3203 118.502 94.985 119.782 93.8652L117.148 90.8548C115.441 92.3483 114.105 94.1397 113.149 96.2119L116.781 97.8881ZM119.759 93.885C121.086 92.7588 122.676 91.8744 124.557 91.2474L123.292 87.4526C120.973 88.2256 118.923 89.3479 117.171 90.835L119.759 93.885ZM124.557 91.2474C126.427 90.624 128.52 90.3 130.855 90.3V86.3C128.149 86.3 125.622 86.676 123.292 87.4526L124.557 91.2474ZM130.855 90.3C134.248 90.3 137.305 90.8064 140.048 91.7922L141.401 88.0279C138.171 86.867 134.648 86.3 130.855 86.3V90.3ZM140.057 91.7954C142.881 92.7946 145.462 94.2261 147.809 96.0946L150.3 92.9654C147.607 90.8206 144.635 89.1721 141.392 88.0246L140.057 91.7954ZM147.408 93.3945L141.808 101.515L145.101 103.785L150.701 95.6655L147.408 93.3945ZM144.58 100.997C142.287 99.4355 140.013 98.1952 137.757 97.293L136.272 101.007C138.216 101.785 140.236 102.878 142.329 104.303L144.58 100.997ZM137.793 97.3075C135.468 96.3259 133.104 95.82 130.715 95.82V99.82C132.525 99.82 134.362 100.201 136.237 100.993L137.793 97.3075ZM130.715 95.82C128.396 95.82 126.292 96.2759 124.722 97.505L127.187 100.655C127.763 100.204 128.833 99.82 130.715 99.82V95.82ZM124.732 97.4974C123.254 98.6391 122.415 100.209 122.415 102.09H126.415C126.415 101.544 126.602 101.108 127.178 100.663L124.732 97.4974ZM122.415 102.09V102.23H126.415V102.09H122.415ZM122.415 102.23C122.415 103.259 122.597 104.254 123.019 105.168L126.651 103.492C126.512 103.193 126.415 102.787 126.415 102.23H122.415ZM123.107 105.338C123.664 106.292 124.529 107.022 125.501 107.594L127.529 104.146C126.914 103.784 126.659 103.488 126.562 103.322L123.107 105.338ZM125.501 107.594C126.478 108.169 127.711 108.666 129.142 109.11L130.327 105.29C129.051 104.894 128.138 104.505 127.529 104.146L125.501 107.594ZM129.16 109.116C130.587 109.544 132.358 110.039 134.469 110.602L135.5 106.738C133.411 106.181 131.683 105.696 130.309 105.284L129.16 109.116ZM134.474 110.604C136.868 111.236 138.96 111.951 140.761 112.741L142.369 109.079C140.342 108.189 138.048 107.411 135.495 106.736L134.474 110.604ZM140.814 112.764C142.604 113.488 144.029 114.356 145.133 115.342L147.797 112.358C146.287 111.01 144.445 109.918 142.315 109.056L140.814 112.764ZM145.189 115.391C146.309 116.317 147.112 117.391 147.633 118.621L151.316 117.059C150.531 115.209 149.327 113.623 147.74 112.309L145.189 115.391ZM147.654 118.668C148.208 119.888 148.525 121.435 148.525 123.37H152.525C152.525 121.012 152.141 118.872 151.295 117.012L147.654 118.668ZM148.525 123.37V123.51H152.525V123.37H148.525ZM148.525 123.51C148.525 125.69 148.127 127.566 147.38 129.179L151.009 130.861C152.035 128.647 152.525 126.183 152.525 123.51H148.525ZM147.388 129.162C146.627 130.765 145.572 132.117 144.213 133.236L146.756 136.324C148.57 134.83 149.989 133.008 151.001 130.878L147.388 129.162ZM144.241 133.214C142.868 134.304 141.2 135.178 139.207 135.815L140.423 139.625C142.816 138.862 144.928 137.776 146.728 136.346L144.241 133.214ZM139.244 135.803C137.263 136.393 135.032 136.7 132.535 136.7V140.7C135.357 140.7 137.98 140.353 140.386 139.637L139.244 135.803Z" fill="#2A5A75"/>
</svg>
