<svg width="113" height="83" viewBox="0 0 113 83" fill="none" xmlns="http://www.w3.org/2000/svg">
<path d="M112.697 64.434C112.697 64.43 112.696 64.426 112.696 64.422C112.696 64.419 112.696 64.417 112.696 64.414C112.573 62.428 111.896 60.883 110.685 59.821C108.233 57.673 104.281 57.948 100.097 58.239C98.9021 58.322 88.3661 58.595 85.6701 58.339C73.1051 56.928 63.1411 49.123 56.0591 35.141C50.6941 24.552 49.0991 14.219 49.0841 14.116C49.0301 13.755 48.8291 13.431 48.5301 13.222C48.2311 13.012 47.8591 12.935 47.5001 13.008C47.4971 13.008 46.4611 13.219 41.0901 14.297C39.0641 14.703 37.6041 15.629 36.7491 17.048C36.5371 17.4 36.3801 17.757 36.2621 18.11H19.2431C18.9351 17.502 18.5511 16.965 18.0881 16.503C16.4421 14.861 14.4771 14.819 14.2571 14.819H10.3651V13.079C12.4091 12.497 13.9121 10.617 13.9121 8.389V4.88C13.9121 2.189 11.7231 -1.52588e-06 9.03211 -1.52588e-06C8.29611 -1.52588e-06 7.69911 0.596999 7.69911 1.333V14.819H7.19511C6.83811 14.819 6.49711 14.962 6.24611 15.216C5.99611 15.47 5.85711 15.813 5.86211 16.17C5.86311 16.283 6.00711 27.569 5.86211 35.403C5.77411 40.138 5.34011 41.444 4.17911 44.932C3.46511 47.076 2.48811 50.011 1.19711 54.953C-0.833889 62.725 0.0681093 67.019 1.33811 69.331C1.14211 69.395 0.95911 69.5 0.80911 69.648C0.55811 69.898 0.417112 70.238 0.417112 70.592V80.45C0.417112 81.186 1.01411 81.783 1.75011 81.783H32.2071C32.9431 81.783 33.5401 81.186 33.5401 80.45V77.816C35.9641 77.93 41.4411 78.346 47.9401 79.872C55.5911 81.669 62.1551 82.865 69.3221 82.865C73.2271 82.865 77.2351 82.505 81.5741 81.764C93.1601 79.787 105.903 74.399 110.091 72.628C112.81 71.478 112.773 66.065 112.697 64.434ZM10.3641 3.116C10.8971 3.52 11.2441 4.159 11.2441 4.879V8.388C11.2441 9.108 10.8971 9.746 10.3641 10.151V3.116ZM35.9941 20.775C36.0401 21.205 42.3471 57.504 42.3471 57.504C42.2921 58.993 41.0641 60.187 39.5621 60.187H22.9371C21.4011 60.187 20.1501 58.937 20.1501 57.4V22.477C20.1501 21.877 20.1111 21.31 20.0381 20.774H35.9941V20.775ZM3.77511 55.627C5.04411 50.77 6.00611 47.882 6.70711 45.774C7.89111 42.217 8.43111 40.594 8.52611 35.451C8.64211 29.186 8.57411 20.736 8.54111 17.485H14.2591C14.2691 17.485 15.3331 17.521 16.2041 18.39C17.0531 19.237 17.4841 20.612 17.4841 22.478V57.401C17.4841 60.408 19.9301 62.854 22.9371 62.854H39.5631C42.5701 62.854 45.0431 60.408 45.0161 57.401C45.0081 56.482 38.7531 21.072 38.7411 21.028C38.7371 21.013 38.4761 19.397 39.0411 18.407C39.4721 17.651 40.3611 17.162 41.6131 16.91C44.1631 16.398 45.7371 16.082 46.6881 15.89C47.3071 19.12 49.2141 27.508 53.6471 36.281C56.9221 42.764 60.9021 48.089 65.4751 52.109C71.2411 57.177 77.9461 60.241 85.4291 60.995C87.1931 61.173 97.9401 61.122 100.282 60.899C103.73 60.57 107.31 60.409 108.927 61.826C109.432 62.268 109.761 62.893 109.926 63.72C105.841 65.7 87.4441 74.188 71.7671 74.425C63.7991 74.547 58.2331 73.367 52.3251 72.115C45.8461 70.743 39.1471 69.323 28.5931 69.323C21.0941 69.323 9.93911 69.341 4.68811 69.323C3.91511 68.698 1.16411 65.616 3.77511 55.627ZM109.052 70.172C104.935 71.913 92.4071 77.21 81.1251 79.136C76.9351 79.851 73.0741 80.198 69.3211 80.198C62.4101 80.198 56.0191 79.03 48.5481 77.276C39.4701 75.144 32.5001 75.107 32.2081 75.107C32.2071 75.107 32.2061 75.107 32.2061 75.107C31.8521 75.107 31.5131 75.247 31.2631 75.497C31.0121 75.747 30.8721 76.086 30.8721 76.441V79.117H3.08211V71.99C7.24911 72.005 20.2061 71.99 28.5921 71.99C38.8671 71.99 45.4271 73.38 51.7711 74.724C57.8261 76.007 63.5361 77.214 71.8061 77.092C87.0771 76.861 104.25 69.37 110.004 66.645C109.87 68.516 109.457 70 109.052 70.172Z" fill="#AEB6C1"/>
</svg>
