<svg width="112" height="28" viewBox="0 0 112 28" fill="none" xmlns="http://www.w3.org/2000/svg">
<path d="M107.447 17.7662H92.625C93.827 14.8872 93.958 10.4402 89.517 6.42821C81.087 -1.18679 70.9 -2.06479 60.003 3.94721C43.855 12.8562 30.194 17.2322 28.477 17.7662H4.206C1.612 17.7662 -9.15527e-07 19.6922 -9.15527e-07 22.7922C-9.15527e-07 25.8932 1.612 27.8182 4.206 27.8182H107.447C110.042 27.8182 111.653 25.8922 111.653 22.7922C111.653 19.6912 110.041 17.7662 107.447 17.7662ZM85.579 6.59321C91.559 10.9732 91.026 14.7062 90.227 16.5352C88.347 14.1382 84.267 10.4412 76.996 10.4412C75.699 10.4412 74.49 10.6032 73.35 10.8722L67.188 3.71921C72.893 1.64021 79.739 2.31621 85.579 6.59321ZM87.794 17.7662H65.218C65.696 17.4852 71.086 13.1292 76.996 13.1082C82.773 13.0872 86.132 15.8252 87.794 17.7662ZM64.52 4.70621L70.6 11.7642C69.071 12.3932 67.672 13.1782 66.353 13.9672L60.19 6.88321C60.556 6.68521 63.456 5.15821 64.52 4.70621ZM57.776 8.17221L64.036 15.3682C61.773 16.7152 59.702 17.7662 57.377 17.7662H36.512C41.751 15.7732 49.315 12.6102 57.776 8.17221ZM107.447 25.1512H4.206C3.825 25.1512 2.667 25.1512 2.667 22.7912C2.667 20.4322 3.826 20.4322 4.206 20.4322H107.447C107.828 20.4322 108.987 20.4322 108.987 22.7912C108.987 25.1512 107.827 25.1512 107.447 25.1512Z" fill="#000000"/>
</svg>
