<svg width="105" height="74" viewBox="0 0 105 74" fill="none" xmlns="http://www.w3.org/2000/svg">
<path d="M104.37 60.5077C102.832 56.9417 96.5097 54.3067 88.6387 53.9507C82.7517 53.6847 76.1677 49.3427 76.1017 49.2997C75.5557 48.9347 74.8247 49.0267 74.3847 49.5147C71.8887 52.2837 69.4677 53.5737 66.7637 53.5737C60.5437 53.5747 52.6127 46.7117 42.5207 32.5927C24.6957 7.65568 11.5027 0.776688 11.0777 0.368688C10.8037 0.105688 10.4307 -0.0273104 10.0507 0.00468959C9.67168 0.0366896 9.32472 0.229688 9.09872 0.534688C9.09872 0.534688 1.3937 12.4827 0.393698 23.4827C0.217698 25.4167 -0.501322 27.8737 0.597678 32.3317C3.87368 45.6067 4.80273 72.0317 4.81173 72.2977C4.83573 73.0107 5.42069 73.5757 6.13369 73.5757H12.3277C13.0587 73.5757 13.6507 72.9837 13.6507 72.2527V47.8017C13.6507 42.7867 14.5067 41.0127 15.3087 40.9997C15.9307 40.9897 24.9257 46.2817 37.8007 59.1477C39.5687 60.9147 41.0787 62.7377 42.9587 64.5427C51.4097 72.6577 62.4687 73.8697 68.3097 73.8697C70.0187 73.8697 71.6637 73.7667 73.1987 73.5647C90.1977 71.3197 102.847 65.0197 103.377 64.7527C103.532 64.6747 103.67 64.5657 103.784 64.4347C104.749 63.3127 104.962 61.8817 104.37 60.5077ZM11.0047 70.9287H7.40768C7.38268 70.3217 7.34772 69.5187 7.30172 68.5567H11.0047V70.9287ZM11.0047 47.8007V65.9107H7.16567C6.70167 57.4167 5.60971 42.2837 3.38271 32.6037L13.2277 39.0767C11.0067 40.9057 11.0047 45.7287 11.0047 47.8007ZM101.918 62.5197C100.001 63.4387 88.0587 68.9327 72.8527 70.9407C71.4327 71.1287 69.9027 71.2237 68.3097 71.2237C63.9277 71.2237 52.8647 70.3867 44.7917 62.6347C42.9747 60.8897 41.4327 59.1567 39.7557 57.3647C27.6047 44.3767 2.83071 29.0757 2.83071 29.0757C1.39571 21.4827 10.3067 3.35069 10.3067 3.35069C13.3677 6.52569 25.9307 13.9317 40.3707 34.1317C51.1427 49.2027 59.5307 56.2207 66.7667 56.2207C69.9317 56.2207 72.8257 54.8697 75.5867 52.0967C77.7527 53.3937 83.2417 56.3567 88.5217 56.5957C96.9027 56.9747 101.202 59.8407 101.943 61.5577C102.103 61.9317 102.099 62.2247 101.918 62.5197Z" fill="#AEB6C1"/>
</svg>
