<svg width="111" height="60" viewBox="0 0 111 60" fill="none" xmlns="http://www.w3.org/2000/svg">
<path d="M95.8761 41.032C89.9551 40.068 85.6101 38.542 85.5661 38.527C85.1041 38.363 84.5901 38.469 84.2311 38.799C83.6871 39.214 80.0271 41.177 74.6161 41.177C68.2791 41.177 61.9911 38.592 55.9271 33.493C39.9501 20.062 8.9551 0.401996 8.6441 0.204996C8.3381 0.0119956 7.96714 -0.0480048 7.61614 0.0389952C7.26514 0.126995 6.96513 0.353993 6.78613 0.667993C-4.62287 20.706 1.73412 29.564 2.03912 29.908C4.23512 32.382 10.0801 38.369 9.89111 58.278C9.88711 58.642 9.99914 58.999 10.2491 59.264C10.4991 59.53 10.8471 59.68 11.2121 59.68H16.8081C17.5391 59.68 18.1311 59.088 18.1311 58.357V43.193C18.1311 40.031 18.8431 37.914 20.2651 36.924C22.2451 35.546 24.7821 36.572 24.8281 36.583C37.9231 42.033 47.2941 51.95 47.2941 51.95C50.7121 55.445 57.2331 59.611 68.8901 59.611C84.2241 59.611 108.624 53.899 109.655 53.655C110.24 53.517 110.658 53.002 110.674 52.401C110.832 46.27 103.114 42.21 95.8761 41.032ZM15.4851 43.192V57.033H12.5821C12.6641 52.727 12.3731 39.649 6.3861 31.017C10.9041 31.874 15.2021 33.012 19.2751 34.426C19.1031 34.522 15.4851 35.979 15.4851 43.192ZM68.8891 56.965C58.1531 56.965 52.2481 53.232 49.1851 50.1C49.1851 50.1 44.0431 44.338 35.4171 39.099C26.1471 33.469 16.4681 29.981 3.91009 27.898C3.50509 27.12 0.00111294 19.065 8.40911 3.19299C14.2321 6.92199 40.1511 23.686 54.2251 35.518C60.7791 41.028 67.6401 43.823 74.6171 43.823C79.7951 43.823 83.6941 42.203 85.3211 41.236C86.7731 41.707 90.5601 42.848 95.4511 43.644C101.144 44.571 107.115 47.518 107.935 51.335C102.917 52.464 82.0991 56.965 68.8891 56.965Z" fill="#AEB6C1"/>
</svg>
