<svg width="112" height="25" viewBox="0 0 112 25" version="1.1" xmlns="http://www.w3.org/2000/svg" xmlns:xlink="http://www.w3.org/1999/xlink">
<g id="Canvas" fill="none">
<g id="Vector">
<path d="M 97.9 8.63017L 97.81 8.63017C 97.5757 8.6328 97.3519 8.72773 97.1871 8.89435C 97.0224 9.06098 96.93 9.28585 96.93 9.52017L 96.93 18.3202C 96.93 18.5562 97.0238 18.7826 97.1907 18.9495C 97.3576 19.1164 97.584 19.2102 97.82 19.2102C 98.056 19.2102 98.2824 19.1164 98.4493 18.9495C 98.6162 18.7826 98.71 18.5562 98.71 18.3202L 98.71 9.51017C 98.7084 9.28908 98.6246 9.0765 98.4749 8.91383C 98.3251 8.75116 98.1202 8.65004 97.9 8.63017ZM 88.17 9.51017C 88.1679 9.3266 88.1085 9.14828 88 9.00017C 87.9521 8.92576 87.8869 8.86401 87.81 8.82017L 87.74 8.82017C 87.6054 8.74005 87.4519 8.69731 87.2952 8.69636C 87.1386 8.69541 86.9845 8.73629 86.849 8.81477C 86.7134 8.89325 86.6013 9.0065 86.5241 9.14281C 86.4469 9.27911 86.4075 9.43355 86.41 9.59017L 86.41 10.4402C 86.0605 9.85432 85.559 9.37395 84.9587 9.05001C 84.3583 8.72607 83.6815 8.57063 83 8.60017C 82.3045 8.5853 81.614 8.72053 80.9755 8.99664C 80.337 9.27275 79.7655 9.68325 79.3 10.2002C 78.3013 11.2885 77.7667 12.7237 77.81 14.2002C 77.7808 15.5081 78.2655 16.7754 79.16 17.7302C 79.603 18.2096 80.1439 18.5882 80.7461 18.8401C 81.3483 19.092 81.9976 19.2114 82.65 19.1902C 83.3912 19.2396 84.1313 19.078 84.7843 18.724C 85.4374 18.37 85.9768 17.8382 86.34 17.1902L 86.34 17.4102L 86.34 18.2802C 86.3425 18.5137 86.4358 18.7371 86.6 18.9032C 86.7642 19.0693 86.9865 19.165 87.22 19.1702L 87.28 19.1702C 87.509 19.1599 87.7253 19.0616 87.8836 18.8958C 88.042 18.73 88.1302 18.5094 88.13 18.2802L 88.13 9.92017C 88.13 9.92017 88.13 9.92017 88.13 9.85017L 88.17 9.51017ZM 85.4 16.5102C 85.0793 16.8407 84.6929 17.1004 84.2658 17.2726C 83.8387 17.4448 83.3803 17.5258 82.92 17.5102C 82.4972 17.5107 82.0791 17.4219 81.6931 17.2496C 81.3071 17.0773 80.9618 16.8253 80.68 16.5102C 80.3724 16.1828 80.1327 15.7978 79.9748 15.3772C 79.8169 14.9567 79.7439 14.5091 79.76 14.0602C 79.7222 13.0435 80.0564 12.048 80.7 11.2602C 80.9834 10.9108 81.3418 10.6296 81.7486 10.4375C 82.1553 10.2453 82.6001 10.1471 83.05 10.1502C 83.4861 10.1487 83.9179 10.2367 84.3186 10.4087C 84.7194 10.5807 85.0806 10.8331 85.38 11.1502C 85.7215 11.5086 85.9864 11.9328 86.1583 12.3971C 86.3303 12.8613 86.4057 13.3558 86.38 13.8502C 86.4095 14.3433 86.3378 14.8372 86.1693 15.3015C 86.0007 15.7659 85.7389 16.1908 85.4 16.5502L 85.4 16.5102ZM 105.75 8.58017C 104.697 8.56636 103.664 8.86534 102.781 9.43923C 101.898 10.0131 101.205 10.8361 100.79 11.804C 100.376 12.7719 100.257 13.8411 100.451 14.8762C 100.644 15.9113 101.14 16.8658 101.876 17.6188C 102.612 18.3717 103.555 18.8893 104.586 19.1059C 105.616 19.3226 106.688 19.2285 107.665 18.8356C 108.642 18.4428 109.48 17.7689 110.074 16.8992C 110.668 16.0295 110.99 15.0031 111 13.9502C 111.004 13.2555 110.871 12.5668 110.609 11.9235C 110.347 11.2802 109.96 10.6948 109.472 10.2008C 108.983 9.70675 108.402 9.31379 107.762 9.04431C 107.122 8.77482 106.435 8.6341 105.74 8.63017L 105.75 8.58017ZM 107.31 17.0402C 106.828 17.2903 106.293 17.4206 105.75 17.4202C 105.022 17.4152 104.314 17.1805 103.726 16.7496C 103.139 16.3187 102.703 15.7135 102.48 15.0202C 102.322 14.5171 102.278 13.9852 102.35 13.4629C 102.423 12.9407 102.611 12.441 102.9 12.0002C 103.236 11.496 103.7 11.0901 104.244 10.8241C 104.789 10.5581 105.394 10.4416 105.998 10.4863C 106.603 10.5311 107.184 10.7356 107.684 11.0789C 108.183 11.4222 108.582 11.892 108.84 12.4402C 109.246 13.2688 109.313 14.2229 109.027 15.1002C 108.742 15.9775 108.126 16.7092 107.31 17.1402L 107.31 17.0402ZM 33.37 8.63017C 32.3153 8.61828 31.2809 8.92015 30.3982 9.49744C 29.5155 10.0747 28.8243 10.9014 28.4124 11.8724C 28.0005 12.8434 27.8866 13.9149 28.085 14.9508C 28.2835 15.9867 28.7853 16.9402 29.5269 17.6902C 30.2685 18.4403 31.2163 18.9529 32.2499 19.1631C 33.2834 19.3733 34.3562 19.2715 35.3318 18.8707C 36.3074 18.4699 37.1418 17.7881 37.7291 16.9119C 38.3163 16.0358 38.6299 15.0049 38.63 13.9502C 38.634 13.2555 38.501 12.5668 38.2388 11.9235C 37.9766 11.2802 37.5903 10.6948 37.1018 10.2008C 36.6134 9.70675 36.0324 9.31379 35.3921 9.04431C 34.7518 8.77482 34.0647 8.6341 33.37 8.63017ZM 34.93 17.0902C 34.4481 17.3403 33.913 17.4706 33.37 17.4702C 32.6417 17.4652 31.9336 17.2305 31.3464 16.7996C 30.7593 16.3687 30.3231 15.7635 30.1 15.0702C 29.9356 14.5591 29.8888 14.0175 29.9633 13.4859C 30.0378 12.9543 30.2315 12.4464 30.53 12.0002C 30.8661 11.496 31.33 11.0901 31.8744 10.8241C 32.4189 10.5581 33.0242 10.4416 33.6284 10.4863C 34.2327 10.5311 34.8142 10.7356 35.3135 11.0789C 35.8128 11.4222 36.2119 11.892 36.47 12.4402C 36.8757 13.2688 36.9429 14.2229 36.6573 15.1002C 36.3717 15.9775 35.7558 16.7092 34.94 17.1402L 34.93 17.0902ZM 45.29 8.56017C 44.6133 8.57088 43.9553 8.78327 43.4 9.17017C 42.7895 9.59272 42.3055 10.1735 42 10.8502L 42 9.51017C 41.9984 9.28908 41.9146 9.0765 41.7649 8.91383C 41.6151 8.75116 41.4102 8.65004 41.19 8.63017L 41.1 8.63017C 40.8657 8.6328 40.6419 8.72773 40.4771 8.89435C 40.3124 9.06098 40.22 9.28585 40.22 9.52017L 40.22 18.3202C 40.22 18.5562 40.3138 18.7826 40.4807 18.9495C 40.6476 19.1164 40.874 19.2102 41.11 19.2102C 41.346 19.2102 41.5724 19.1164 41.7393 18.9495C 41.9062 18.7826 42 18.5562 42 18.3202L 42 14.3202C 41.9633 13.3103 42.2817 12.3195 42.9 11.5202C 43.1499 11.1785 43.4763 10.9002 43.8532 10.7074C 44.23 10.5147 44.6467 10.4129 45.07 10.4102L 45.5 10.4102C 45.618 10.4189 45.7364 10.3999 45.8458 10.3547C 45.9552 10.3096 46.0525 10.2396 46.13 10.1502C 46.2777 9.96624 46.3556 9.736 46.35 9.50017C 46.3367 8.8735 45.9833 8.56017 45.29 8.56017ZM 72.29 8.56017C 71.5181 8.55443 70.7587 8.75464 70.09 9.14017C 69.4583 9.49021 68.9593 10.0384 68.67 10.7002L 68.67 9.51017C 68.6684 9.28908 68.5846 9.0765 68.4349 8.91383C 68.2851 8.75116 68.0802 8.65004 67.86 8.63017L 67.74 8.63017C 67.5144 8.64285 67.3022 8.74083 67.1462 8.90424C 66.9902 9.06766 66.9022 9.28427 66.9 9.51017L 66.9 18.3102C 66.9 18.5462 66.9938 18.7726 67.1607 18.9395C 67.3276 19.1064 67.554 19.2002 67.79 19.2002C 68.026 19.2002 68.2524 19.1064 68.4193 18.9395C 68.5862 18.7726 68.68 18.5462 68.68 18.3102L 68.68 14.5402C 68.6777 14.1058 68.701 13.6717 68.75 13.2402C 68.7919 12.8457 68.8757 12.4569 69 12.0802C 69.115 11.7136 69.302 11.3736 69.55 11.0802C 69.8081 10.7998 70.1259 10.581 70.48 10.4402C 70.9218 10.2643 71.3946 10.1793 71.87 10.1902C 73.4633 10.1902 74.2733 11.2902 74.3 13.4902C 74.3 14.0635 74.3 14.9002 74.3 16.0002C 74.3 17.1002 74.3 17.6302 74.3 18.0002C 74.3 18.7702 74.66 19.1402 75.25 19.1402C 75.84 19.1402 76.15 18.9002 76.25 18.0002L 76.25 13.0002C 76.3208 11.8223 75.9659 10.6582 75.25 9.72017C 74.8888 9.30525 74.436 8.97995 73.9276 8.76996C 73.4191 8.55998 72.8687 8.47104 72.32 8.51017L 72.29 8.56017ZM 90.69 3.38017C 90.454 3.38017 90.2276 3.47394 90.0607 3.64085C 89.8938 3.80775 89.8 4.03413 89.8 4.27017L 89.8 18.3202C 89.8 18.5562 89.8938 18.7826 90.0607 18.9495C 90.2276 19.1164 90.454 19.2102 90.69 19.2102C 90.926 19.2102 91.1524 19.1164 91.3193 18.9495C 91.4862 18.7826 91.58 18.5562 91.58 18.3202L 91.58 4.23017C 91.5802 4.0009 91.492 3.78038 91.3336 3.61458C 91.1753 3.44877 90.959 3.35048 90.73 3.34017L 90.69 3.38017ZM 64.39 8.63017L 64.3 8.63017C 64.0657 8.6328 63.8419 8.72773 63.6771 8.89435C 63.5124 9.06098 63.42 9.28585 63.42 9.52017L 63.42 18.3202C 63.42 18.5562 63.5138 18.7826 63.6807 18.9495C 63.8476 19.1164 64.074 19.2102 64.31 19.2102C 64.546 19.2102 64.7724 19.1164 64.9393 18.9495C 65.1062 18.7826 65.2 18.5562 65.2 18.3202L 65.2 9.51017C 65.1984 9.28908 65.1146 9.0765 64.9649 8.91383C 64.8151 8.75116 64.6102 8.65004 64.39 8.63017ZM 49 8.63017L 48.91 8.63017C 48.6757 8.6328 48.4519 8.72773 48.2871 8.89435C 48.1224 9.06098 48.03 9.28585 48.03 9.52017L 48.03 18.3202C 48.03 18.5562 48.1238 18.7826 48.2907 18.9495C 48.4576 19.1164 48.684 19.2102 48.92 19.2102C 49.156 19.2102 49.3824 19.1164 49.5493 18.9495C 49.7162 18.7826 49.81 18.5562 49.81 18.3202L 49.81 9.51017C 49.8084 9.28908 49.7246 9.0765 49.5749 8.91383C 49.4251 8.75116 49.2202 8.65004 49 8.63017ZM 61.15 8.70017C 61.0148 8.64038 60.8669 8.6152 60.7195 8.6269C 60.5722 8.63861 60.4301 8.68683 60.306 8.76721C 60.182 8.84759 60.0799 8.95761 60.009 9.08732C 59.9381 9.21703 59.9007 9.36236 59.9 9.51017L 59.9 10.3102C 59.5455 9.76529 59.0588 9.31904 58.4852 9.01303C 57.9117 8.70703 57.27 8.55124 56.62 8.56017C 55.9245 8.5453 55.234 8.68053 54.5955 8.95664C 53.957 9.23275 53.3855 9.64325 52.92 10.1602C 51.9185 11.2468 51.3835 12.6831 51.43 14.1602C 51.4128 15.4795 51.9115 16.7533 52.82 17.7102C 53.2578 18.1961 53.7954 18.5817 54.396 18.8406C 54.9966 19.0995 55.6461 19.2256 56.3 19.2102C 57.0252 19.2183 57.7408 19.0429 58.38 18.7002C 58.9966 18.3712 59.5118 17.8803 59.87 17.2802L 59.87 18.8702C 59.8895 19.3609 59.8111 19.8506 59.6395 20.3107C 59.4678 20.7708 59.2062 21.1922 58.87 21.5502C 58.544 21.882 58.1524 22.1423 57.7203 22.3144C 57.2881 22.4866 56.8249 22.5669 56.36 22.5502C 55.6429 22.5544 54.9323 22.415 54.27 22.1402C 54.1494 22.0959 54.0324 22.0424 53.92 21.9802C 53.805 21.9163 53.6845 21.8628 53.56 21.8202C 53.4671 21.807 53.3729 21.807 53.28 21.8202C 53.167 21.8201 53.0555 21.8451 52.9534 21.8936C 52.8513 21.942 52.7613 22.0126 52.69 22.1002C 52.5315 22.2799 52.4428 22.5105 52.44 22.7502C 52.44 23.1435 52.6967 23.4768 53.21 23.7502C 54.187 24.2004 55.2546 24.4194 56.33 24.3902C 57.042 24.4141 57.7516 24.2946 58.4165 24.0386C 59.0813 23.7826 59.6879 23.3954 60.2 22.9002C 60.7092 22.3923 61.1045 21.7818 61.3597 21.1094C 61.6148 20.437 61.724 19.718 61.68 19.0002L 61.68 18.4802L 61.68 16.8602C 61.68 15.6735 61.68 13.6735 61.68 10.8602L 61.68 9.51017C 61.681 9.3406 61.6335 9.17427 61.5432 9.03077C 61.4528 8.88727 61.3233 8.77257 61.17 8.70017L 61.15 8.70017ZM 59.92 14.5002C 59.8296 15.2629 59.4759 15.9702 58.92 16.5002C 58.6048 16.8213 58.2279 17.0754 57.8121 17.2472C 57.3962 17.4191 56.9499 17.5051 56.5 17.5002C 56.0739 17.5036 55.6519 17.4161 55.2622 17.2437C 54.8726 17.0713 54.5241 16.8178 54.24 16.5002C 53.9307 16.1719 53.6901 15.7853 53.5321 15.3629C 53.3741 14.9405 53.302 14.4908 53.32 14.0402C 53.2903 13.0144 53.6472 12.015 54.32 11.2402C 54.6116 10.8928 54.9781 10.616 55.3921 10.4306C 55.8061 10.2453 56.2567 10.1563 56.71 10.1702C 57.1451 10.1653 57.5765 10.2517 57.9761 10.424C 58.3757 10.5962 58.7348 10.8504 59.03 11.1702C 59.554 11.7425 59.8679 12.4759 59.92 13.2502C 59.9321 13.4667 59.9321 13.6837 59.92 13.9002C 59.9322 14.1 59.9322 14.3004 59.92 14.5002ZM 94.28 17.4502C 94.1059 17.4502 93.9358 17.5018 93.7911 17.5985C 93.6464 17.6952 93.5336 17.8326 93.467 17.9934C 93.4004 18.1542 93.3829 18.3311 93.4169 18.5019C 93.4509 18.6726 93.5347 18.8294 93.6577 18.9524C 93.7808 19.0755 93.9376 19.1593 94.1083 19.1933C 94.279 19.2272 94.456 19.2098 94.6168 19.1432C 94.7776 19.0766 94.915 18.9638 95.0117 18.8191C 95.1084 18.6744 95.16 18.5042 95.16 18.3302C 95.16 18.2138 95.1369 18.0985 95.0921 17.9911C 95.0472 17.8837 94.9815 17.7862 94.8987 17.7044C 94.8159 17.6225 94.7178 17.5579 94.6098 17.5143C 94.5019 17.4706 94.3864 17.4488 94.27 17.4502L 94.28 17.4502ZM 23.63 12.7202C 23.547 12.4423 23.4149 12.1815 23.24 11.9502C 23.1503 11.8311 23.0535 11.7175 22.95 11.6102C 22.7753 11.4447 22.5843 11.2973 22.38 11.1702L 4.24 0.540171L 3.82 0.290171C 3.46151 0.103649 3.06409 0.00429345 2.66 0.000171122C 2.31211 -0.0037975 1.96688 0.0612994 1.64433 0.191691C 1.32177 0.322083 1.02829 0.515179 0.780885 0.759793C 0.533481 1.00441 0.337069 1.29568 0.203027 1.61674C 0.0689855 1.93779 -2.26299e-05 2.28226 5.5667e-09 2.63017C 0.0211777 3.26205 0.24144 3.87108 0.629342 4.37032C 1.01724 4.86957 1.55296 5.2335 2.16 5.41017L 2.72 5.57017L 2.72 22.3702C 2.71074 22.53 2.71074 22.6903 2.72 22.8502C 2.76123 23.027 2.81469 23.2008 2.88 23.3702C 2.93713 23.5149 3.01096 23.6525 3.1 23.7802C 3.18548 23.9088 3.28255 24.0293 3.39 24.1402C 3.4927 24.2479 3.60298 24.3482 3.72 24.4402C 3.83495 24.5245 3.9552 24.6013 4.08 24.6702L 4.42 24.8202L 4.81 24.9202L 5.22 24.9202L 5.28 24.9202C 5.44301 24.9348 5.60699 24.9348 5.77 24.9202C 5.9717 24.8781 6.16918 24.8179 6.36 24.7402L 6.63 24.6102L 6.69 24.6102L 7 24.4902L 7.46 24.2302L 22 16.0002L 22.49 15.7102C 22.6935 15.5863 22.8815 15.4386 23.05 15.2702C 23.1916 15.1214 23.3157 14.957 23.42 14.7802C 23.5305 14.5961 23.6146 14.3975 23.67 14.1902C 23.714 14.0297 23.7441 13.8658 23.76 13.7002C 23.7753 13.5405 23.7753 13.3798 23.76 13.2202C 23.7296 13.0504 23.6861 12.8832 23.63 12.7202ZM 3 4.77017L 2.78 4.70017L 2.44 4.61017C 1.99938 4.48291 1.609 4.2223 1.32249 3.86418C 1.03599 3.50605 0.867439 3.06798 0.84 2.61017C 0.842625 2.14155 1.02995 1.69287 1.36132 1.36149C 1.69269 1.03012 2.14138 0.842797 2.61 0.840171C 2.88555 0.829732 3.15966 0.884555 3.41 1.00017L 3.68 1.16017L 3.82 1.24017C 7.3586 3.40531 10.2146 6.52477 12.06 10.2402L 12 10.2302L 11.89 10.1002L 11.67 9.84017L 11.57 9.73017L 11.31 9.46017L 11.24 9.39017L 10.93 9.09017C 8.63306 7.0895 5.92656 5.61508 3 4.77017ZM 6.62 23.7702L 6.38 23.9102L 6.18 24.0002C 6.0408 24.0562 5.8969 24.0997 5.75 24.1302C 5.62699 24.1428 5.50301 24.1428 5.38 24.1302L 5.1 24.1302L 4.83 24.0602L 4.58 23.9502L 4.36 23.8102L 4.13 23.6002C 4.05575 23.5232 3.9888 23.4395 3.93 23.3502C 3.87723 23.2721 3.83361 23.1882 3.8 23.1002C 3.75162 22.9763 3.71153 22.8494 3.68 22.7202C 3.67327 22.6003 3.67327 22.4801 3.68 22.3602L 3.68 5.86017C 4.90639 6.30035 6.09385 6.84223 7.23 7.48017L 7.37 7.56017L 7.64 7.72017L 7.85 7.85017L 8.01 7.95017C 8.33 8.15017 8.65 8.36017 9.01 8.59017L 9.35 8.85017C 9.82351 9.21554 10.2712 9.61315 10.69 10.0402C 10.9873 10.3558 11.2645 10.6898 11.52 11.0402L 11.57 11.1102L 11.77 11.3902L 11.88 11.5502L 12.04 11.8102L 12.16 12.0302L 12.29 12.2702C 12.3633 12.4168 12.4333 12.5635 12.5 12.7102L 12.58 12.9002L 12.71 13.2302L 12.78 13.4302C 12.82 13.5502 12.8567 13.6735 12.89 13.8002L 13 14.0002C 13 14.1702 13.08 14.3502 13.11 14.5302C 13.11 14.7002 13.11 14.8702 13.11 15.0402C 13.11 15.2102 13.11 15.1702 13.11 15.2402C 13.11 15.3102 13.11 15.5402 13.11 15.6902C 13.11 15.8402 13.11 15.8402 13.11 15.9102C 13.11 15.9802 13.11 16.1902 13.03 16.3202C 12.95 16.4502 13.03 16.4802 12.98 16.5602C 12.93 16.6402 12.91 16.8102 12.88 16.9302C 12.85 17.0502 12.88 17.1102 12.8 17.2002C 12.72 17.2902 12.72 17.4202 12.68 17.5302C 12.64 17.6402 12.61 17.7302 12.56 17.8302L 12.44 18.0902C 12.39 18.2102 12.33 18.3202 12.27 18.4402L 12.17 18.6102C 10.8363 20.7996 8.91757 22.5729 6.63 23.7302L 6.62 23.7702ZM 22.83 14.0002C 22.7949 14.1338 22.741 14.2617 22.67 14.3802C 22.5997 14.5025 22.5158 14.6166 22.42 14.7202C 22.2917 14.83 22.1507 14.924 22 15.0002L 21.52 15.2902L 11.43 21.0002L 11.57 20.8302L 11.85 20.4902L 12.09 20.1802L 12.26 19.9502L 12.55 19.5002L 12.68 19.2702C 12.77 19.1102 12.86 18.9502 12.94 18.7902L 13.03 18.6002C 13.1033 18.4535 13.17 18.3035 13.23 18.1502L 13.3 17.9802C 13.37 17.8102 13.43 17.6302 13.49 17.4602L 13.49 17.3102C 13.55 17.1202 13.6 16.9202 13.65 16.7202L 13.65 16.6002C 13.65 16.3902 13.73 16.1802 13.76 15.9602L 13.76 15.9102C 13.8105 15.5289 13.8372 15.1448 13.84 14.7602C 13.84 14.6902 13.84 14.6202 13.84 14.5502C 13.84 14.4802 13.84 14.4902 13.84 14.4502C 13.84 14.4102 13.84 14.3302 13.84 14.2602C 13.84 14.1902 13.84 14.0102 13.84 13.8902C 13.84 13.7702 13.84 13.7902 13.84 13.7402C 13.84 13.4268 13.7967 13.1135 13.71 12.8002L 13.71 12.7302C 13.71 12.5602 13.64 12.3802 13.6 12.2102L 13.6 12.1602C 12.7124 9.11913 11.0478 6.36188 8.77 4.16017L 21.94 11.8702C 22.0867 11.9633 22.224 12.0705 22.35 12.1902L 22.56 12.4402C 22.6158 12.5164 22.666 12.5966 22.71 12.6802C 22.7527 12.7641 22.7895 12.851 22.82 12.9402C 22.8521 13.0583 22.8755 13.1786 22.89 13.3002C 22.8998 13.4033 22.8998 13.5071 22.89 13.6102C 22.8829 13.7418 22.8628 13.8725 22.83 14.0002Z" transform="translate(0.333496 0)" fill="white"/>
</g>
</g>
</svg>

