<svg width="38" height="38" viewBox="0 0 38 38" fill="none" xmlns="http://www.w3.org/2000/svg">
<rect width="38" height="38" fill="black" fill-opacity="0"/>
<path d="M18.0051 24.4971C17.1105 25.1681 15.8337 24.5297 15.8337 23.4114V14.59C15.8337 13.4716 17.1105 12.8332 18.0051 13.5042L23.8861 17.915C24.6099 18.4578 24.6099 19.5435 23.8861 20.0864L18.0051 24.4971Z" fill="#5F75AA"/>
<path fill-rule="evenodd" clip-rule="evenodd" d="M19.0003 5.88151C11.7594 5.88151 5.88128 11.7596 5.88128 19.0006C5.88128 26.2415 11.7594 32.1196 19.0003 32.1196C26.2413 32.1196 32.1194 26.2415 32.1194 19.0006C32.1194 11.7596 26.2413 5.88151 19.0003 5.88151ZM3.16699 19.0006C3.16699 10.2606 10.2603 3.16722 19.0003 3.16722C27.7403 3.16722 34.8337 10.2606 34.8337 19.0006C34.8337 27.7406 27.7403 34.8339 19.0003 34.8339C10.2603 34.8339 3.16699 27.7406 3.16699 19.0006Z" fill="#5F75AA"/>
</svg>
