<svg version="1.1" xmlns="http://www.w3.org/2000/svg" xmlns:xlink="http://www.w3.org/1999/xlink" x="0px" y="0px" viewBox="0 0 1000 1000" enable-background="new 0 0 1000 1000" xml:space="preserve">
<g><g transform="translate(0.000000,511.000000) scale(0.100000,-0.100000)"><path fill="black" d="M4778.1,4802.1c-354.3-128.6-622.2-423.9-896.4-987.1c-265.8-550.5-476.7-1322.4-609.5-2233.6c-23.2-160.3-46.4-295.3-50.6-299.5c-4.2-4.2-162.4-61.2-354.3-126.6C2084.7,891.8,1359.1,526.9,570.3,1.7C414.3-101.6,243.4-219.7,192.8-261.9L100-335.8l12.6-128.6c27.4-282.6,179.3-915.4,341.7-1425.8c293.2-913.3,658.1-1596.6,1075.7-2016.3c345.9-350.1,590.6-470.4,1115.7-546.3c1189.6-172.9,2647-208.8,3914.6-94.9c354.3,33.7,873.2,101.2,1054.6,139.2c303.7,63.3,655.9,276.3,909,550.5c571.6,613.8,1039.8,1733.7,1328.8,3170c59.1,297.4,59.1,307.9,21.1,358.6c-50.6,69.6-685.5,497.8-1039.8,700.2c-592.7,341.7-1153.7,596.9-1725.3,786.7c-168.7,54.8-312.1,107.6-322.7,113.9c-8.4,8.4-38,172.9-67.5,367c-139.2,944.9-333.2,1628.3-632.7,2239.9c-234.1,476.7-470.3,746.6-776.2,885.8C5147.1,4840.1,4925.7,4854.8,4778.1,4802.1z M5244.2,4561.6c400.7-194,799.4-909,1048.2-1885.6c179.3-700.2,276.3-1370.9,322.7-2229.4l14.8-270H6575h-52.7l-12.7,248.9C6440,1680.6,6193.3,2809,5815.8,3593.6c-510.4,1060.9-1111.5,1058.8-1617.7-4.2c-337.5-708.7-605.3-1978.4-647.5-3058.3l-12.6-354.3h-84.4h-84.4l14.8,248.9c71.7,1217,259.4,2227.2,552.6,2973.9C4314,4361.3,4788.6,4783.1,5244.2,4561.6z M5161.9,4116.6c301.6-181.4,632.7-864.7,852.1-1756.9c75.9-316.4,191.9-919.6,177.1-934.3c-2.1-4.2-75.9,6.3-160.3,21.1l-156.1,27.4l-12.7,80.1c-6.3,44.3-27.4,94.9-44.3,111.8c-80.1,80.1-940.7,124.4-1389.9,69.6c-244.7-29.5-293.2-59-293.2-175c0-78,6.3-73.8-194-109.7c-73.8-12.7-80.1-8.4-80.1,38c0,67.5,71.7,468.2,139.2,786.7C4217,3277.2,4605.1,4068.1,4929.9,4163C5003.7,4184.1,5073.3,4169.4,5161.9,4116.6z M5564.8,1514l67.5-12.7v-196.1c0-160.3-6.3-204.6-40.1-244.7l-40.1-50.6h-552.6h-552.6l-40.1,50.6c-33.8,40.1-40.1,84.4-40.1,246.8c0,219.3-10.5,206.7,168.7,227.8C4638.9,1547.7,5480.4,1530.8,5564.8,1514z M4185.4,980.4C4229.7,896,4333,813.7,4415.3,799c38-6.3,324.8-10.5,639.1-6.3l571.6,6.3l78,61.2c94.9,71.7,158.2,200.4,160.3,316.4v80.2l80.1-14.8c280.5-50.6,272.1-48.5,286.9-143.4c16.9-124.4,54.8-655.9,54.8-795.1V185.2l-88.6-29.5c-147.6-52.7-185.6-130.8-185.6-388.1c0-251,31.6-322.7,166.6-383.9c86.5-38,86.5-38,86.5-149.8c0-215.1,92.8-301.6,316.4-301.6c244.6,0,337.5,86.5,337.5,310c0,97,2.1,103.4,86.5,143.4c130.8,63.3,166.6,145.5,166.6,379.6c0,143.4-8.4,208.8-37.9,261.5c-42.2,78-151.9,149.7-227.8,149.7c-44.3,0-46.4,12.7-61.2,227.8c-8.4,124.4-21.1,312.2-29.5,415.5c-10.5,105.5-12.6,194-8.4,200.4c4.2,4.2,101.2-21.1,215.1-59.1l206.7-67.5l14.8-533.6c50.6-1851.8,238.3-3106.7,565.2-3758.5c84.4-166.6,232-375.4,314.2-436.6l63.3-50.6l-126.5-90.7c-251-175.1-419.7-227.8-961.8-295.3c-725.5-92.8-1122.1-113.9-2067-116c-923.8,0-1202.2,12.7-1951,94.9c-670.7,73.8-909,141.3-1164.2,326.9l-103.3,75.9l105.5,103.3c272.1,267.9,483,809.9,622.2,1603c135,765.6,175.1,1288.7,229.9,2938l4.2,145.5l208.8,71.7c116,38,213,67.5,215.1,63.3c2.1-2.1-4.2-126.5-14.8-278.4c-42.2-582.1-42.2-580-75.9-580c-63.3,0-181.4-71.7-219.3-135c-31.6-52.7-40.1-107.6-40.1-265.8c0-244.7,35.9-326.9,166.6-390.2c84.4-42.2,86.5-44.3,86.5-154c0-215.1,90.7-299.5,326.9-299.5c238.3,0,307.9,63.3,326.9,293.2c10.5,130.8,12.7,135,82.3,158.2c128.7,42.2,160.3,111.8,166.6,367c6.3,263.6-21.1,333.3-158.2,394.4l-82.3,35.9l6.3,194c12.6,352.2,50.6,803.6,69.6,822.6c10.5,10.5,80.1,29.5,151.9,44.3l132.9,23.2l14.8-111.8C4147.4,1092.1,4168.5,1014.1,4185.4,980.4z M2552.9,742c-2.1-198.3-46.4-1269.7-63.3-1524.9c-101.2-1425.8-339.6-2408.6-685.5-2811.5c-135-156.1-137.1-154-297.4,50.6C1108.2-3033.3,777-2280.4,517.6-1297.5c-82.3,314.2-179.3,763.5-179.3,831c0,75.9,896.4,645.4,1461.6,932.2c246.8,124.4,691.8,322.7,727.7,322.7C2540.3,788.4,2552.9,767.3,2552.9,742z M7758.3,670.3c573.7-255.2,1179-596.9,1700-963.9l206.7-145.5l-12.7-99.1c-46.4-339.6-280.5-1206.4-457.7-1683.1c-202.5-546.3-529.4-1145.3-776.2-1419.4l-86.5-94.9l-111.8,118.1c-396.5,417.6-649.6,1533.3-729.8,3214.3c-40.1,854.2-48.5,1191.7-23.2,1191.7C7477.7,788.4,7610.6,735.7,7758.3,670.3z M3772-59.5c33.8-33.7,33.8-324.8,2.1-345.9c-31.6-19-660.2-19-691.8,0c-31.6,21.1-29.5,314.2,2.1,345.9c16.9,16.9,124.4,25.3,343.8,25.3C3647.6-34.2,3755.1-42.6,3772-59.5z M6931.5-57.3c35.9-29.5,42.2-324.8,8.5-345.9c-31.6-19-660.2-21.1-691.8-2.1c-33.8,19-33.8,312.1-2.1,343.8C6279.8-27.8,6893.5-25.7,6931.5-57.3z M3533.7-751.3v-94.9h-105.5c-103.3,0-105.5,0-111.8,69.6c-10.5,116,4.2,132.9,116,126.5l101.2-6.3V-751.3z M6697.4-751.3v-94.9h-105.4h-105.5l-6.3,101.2l-6.3,101.3l111.8-6.3l111.8-6.3V-751.3z"/><path d="M4870.9,1402.2c-35.8-38-61.2-84.4-61.2-118.1s25.3-80.1,61.2-118.1c101.2-101.2,234.1-75.9,289,57c27.4,63.3,27.4,80.1-2.1,135C5094.4,1480.2,4967.9,1499.2,4870.9,1402.2z"/><path d="M2080.5,168.3c-19-149.7-2.1-206.7,56.9-198.3c42.2,6.3,46.4,19,46.4,154s-4.2,147.6-44.3,154C2099.5,284.3,2093.1,271.7,2080.5,168.3z"/><path d="M2082.6-257.7c-8.4-8.4-14.8-80.1-14.8-160.3c0-139.2,2.1-143.4,52.7-143.4c40.1,0,52.7,12.7,63.3,69.6c8.4,38,10.5,107.6,6.3,151.9c-4.2,65.4-14.8,86.5-48.5,90.7C2116.3-245.1,2091-249.3,2082.6-257.7z"/><path d="M2057.3-797.7c-6.3-14.7-12.7-84.4-14.8-154c-6.3-122.3-4.2-126.5,46.4-126.5c48.5,0,52.7,8.4,65.4,126.5c8.4,67.5,10.5,137.1,4.2,151.9C2143.7-763.9,2069.9-763.9,2057.3-797.7z"/><path d="M2013-1331.3c-8.4-19-14.8-88.6-16.9-154c-2.1-107.6,2.1-120.2,44.3-126.6c52.7-8.4,63.3,21.1,73.8,185.6c6.3,107.6,2.1,116-42.2,122.3C2044.6-1299.6,2019.3-1310.2,2013-1331.3z"/><path d="M1968.7-1822.7c-12.6-8.4-33.7-75.9-48.5-149.7c-25.3-143.4-12.7-181.4,54.8-166.6c56.9,10.5,101.2,257.3,56.9,303.7C1996.1-1801.6,2000.3-1801.6,1968.7-1822.7z"/><path d="M1848.5-2358.4c-27.4-80.1-54.8-202.5-54.8-242.5c0-35.8,12.7-48.5,44.3-48.5c50.6,0,103.3,107.6,109.7,227.8c4.2,67.5-2.1,78-44.3,84.4C1878-2333.1,1852.7-2343.7,1848.5-2358.4z"/><path d="M1643.9-2967.9c-61.2-124.5-63.3-132.9-27.4-160.3c46.4-33.7,80.1-8.4,137.1,105.5c48.5,92.8,46.4,168.7-6.3,179.3C1721.9-2839.3,1692.4-2873,1643.9-2967.9z"/><path d="M7770.9,254.8c-6.3-16.9-8.4-86.5-4.2-154c6.3-116,10.5-124.4,59.1-124.4c50.6,0,52.7,4.2,52.7,147.6c0,137.1-4.2,147.6-48.5,154C7804.7,282.2,7779.4,271.7,7770.9,254.8z"/><path d="M7787.8-396.9c6.3-141.3,10.5-154,54.8-160.3c63.3-8.4,75.9,33.7,54.9,181.4c-16.9,103.4-25.3,120.2-67.5,126.5C7783.6-242.9,7781.5-245.1,7787.8-396.9z"/><path d="M7819.4-787.1c-19-16.9-19-189.8-2.1-253.1c8.5-33.7,29.5-48.5,63.3-48.5c48.5,0,50.6,6.3,50.6,124.4c0,69.6-6.3,139.2-12.7,158.2C7905.9-772.3,7844.7-759.7,7819.4-787.1z"/><path d="M7861.6-1314.4c-19-16.9-14.8-168.7,4.2-238.3c16.9-57,82.2-82.2,107.6-42.2c14.8,25.3,8.4,141.3-12.7,248.9C7952.3-1301.7,7893.2-1282.8,7861.6-1314.4z"/><path d="M7933.3-1826.9c-19-10.5-23.2-48.5-12.7-132.9c16.9-139.2,52.7-196.1,105.4-175c31.6,10.5,35.9,29.5,23.2,126.5C8030.4-1835.3,7998.7-1784.7,7933.3-1826.9z"/><path d="M8021.9-2366.8c-6.3-19,0-88.6,16.9-154c25.3-103.4,35.9-118.1,82.3-118.1s52.7,8.4,48.5,65.4C8154.8-2400.6,8059.9-2265.6,8021.9-2366.8z"/><path d="M8171.7-2866.7c-14.8-42.2,73.8-244.7,118.1-267.9c27.4-14.8,46.4-10.5,63.3,10.5c38,46.4-63.3,272.1-126.5,280.5C8203.3-2839.3,8178-2849.8,8171.7-2866.7z"/></g></g>
</svg>
