<svg version="1.1" fill="rgb(174,182,193)" xmlns="http://www.w3.org/2000/svg" xmlns:xlink="http://www.w3.org/1999/xlink" x="0px" y="0px" viewBox="0 0 1000 1000" enable-background="new 0 0 1000 1000" xml:space="preserve">
<g><g transform="translate(0.000000,512.000000) scale(0.100000,-0.100000)"><path d="M7438.2,4925.1C7309,4200,7353.3,3741,7590.5,3376.5c50.1-75.2,206.4-258.4,349.1-406.9c194.8-202.5,277.7-304.7,333.7-410.8c40.5-77.1,67.5-144.6,63.6-150.4c-5.8-5.8-383.8,181.3-838.9,416.6c-455.2,235.3-838.9,426.2-852.4,426.2c-19.3,0-2021.1-865.9-5978.5-2586.2C329.5,518.3,98.1,406.5,100,393c1.9-13.5,509.1-1189.9,1128.2-2615.1c1018.3-2345.1,1128.2-2590,1162.9-2582.4c54,11.6,6495.4,2809.9,6518.5,2831.1c9.6,9.6,243,808.1,516.9,1776.2c466.7,1650.8,495.6,1762.7,464.8,1785.8c-19.3,13.5-198.6,108-397.3,208.3c-198.6,100.3-379.9,200.6-401.1,221.8c-21.2,21.2-36.7,63.6-36.7,102.2c0,109.9-90.6,426.2-171.7,597.9c-111.8,243-248.8,426.2-514.9,700.1c-270,273.8-339.4,389.6-376.1,613.3c-23.1,156.2-9.6,410.8,36.6,696.2l32.8,194.8l-289.3,61.7c-160.1,32.8-295.1,59.8-300.8,59.8C7465.2,5044.7,7449.8,4990.7,7438.2,4925.1z M5341.8,1183.7c-5.8-34.7-82.9-813.8-173.6-1731.8c-88.7-916.1-169.7-1672.1-177.4-1679.8c-27-25.1-298.9-133.1-308.6-123.4c-9.6,9.6,283.5,3114.6,318.2,3378.8c9.6,79.1,11.6,81,167.8,148.5c84.8,36.6,162,69.4,169.7,69.4C5345.7,1245.4,5347.6,1216.5,5341.8,1183.7z M4084.4,420c233.3-113.8,416.6-368.4,499.5-694.3c40.5-162,46.3-260.4,17.4-406.9c-44.4-241.1-216-453.2-457.1-567c-119.6-55.9-146.6-61.7-324-61.7c-181.3,0-202.5,3.9-324,65.6c-320.1,156.2-538.1,534.2-540,929.6c0,472.5,360.6,815.8,844.7,802.3C3932.1,483.6,3976.4,474,4084.4,420z M6391,196.3c227.6-61.7,424.3-243,543.9-503.4c90.6-196.7,119.6-310.5,117.6-491.8c0-243-77.1-422.4-248.8-582.4c-325.9-304.7-806.1-285.4-1110.8,44.3c-445.5,480.2-378,1205.4,135,1456.1C6030.3,217.5,6211.6,242.5,6391,196.3z"/><path d="M3561.8,63.2C3394-21.7,3386.3-282,3542.5-598.3c63.6-129.2,187.1-270,262.3-298.9c150.4-55.9,300.8,17.4,333.6,165.8C4184.7-525,3988-60.2,3804.8,49.7C3735.3,94.1,3629.3,99.8,3561.8,63.2z"/><path d="M6009.1-216.4c-175.5-86.8-179.3-352.9-5.8-682.7c125.4-241.1,297-347.1,441.6-277.7c146.6,69.4,179.4,235.3,92.6,489.8c-57.9,173.6-123.4,297-208.3,385.7C6217.4-179.8,6128.7-156.7,6009.1-216.4z"/></g></g>
</svg>
