<svg version="1.1" fill="black" xmlns="http://www.w3.org/2000/svg" xmlns:xlink="http://www.w3.org/1999/xlink" x="0px" y="0px" viewBox="0 0 1000 1000" enable-background="new 0 0 1000 1000" xml:space="preserve">
<g><path d="M593.6,491.7H478.2V277.8c0-10.9-8.8-19.8-19.8-19.8c-10.9,0-19.8,8.9-19.8,19.8v233.7c0,10.9,8.8,19.8,19.8,19.8h135.2c10.9,0,19.8-8.9,19.8-19.8C613.4,500.6,604.6,491.7,593.6,491.7z"/><path d="M667.7,806.6c-10.8-1.9-21,5.3-22.9,16l-22.6,127.8H294.5L272,822.6c-1.9-10.7-12.2-18-22.9-16c-10.8,1.9-17.9,12.2-16,22.9l25.4,144.2c1.7,9.5,9.9,16.3,19.5,16.3h360.9c9.6,0,17.8-6.9,19.5-16.3l25.4-144.2C685.6,818.7,678.4,808.5,667.7,806.6z"/><path d="M248.9,187.9c10.9,2,21.1-5.1,23-15.9l22.5-122.4h327.9L644.8,172c1.7,9.5,10.1,16.2,19.4,16.2c1.2,0,2.4-0.1,3.6-0.3c10.7-2,17.8-12.3,15.9-23L658.3,26.2c-1.7-9.4-9.9-16.2-19.4-16.2H278c-9.5,0-17.7,6.8-19.4,16.2l-25.4,138.6C231.1,175.6,238.2,185.9,248.9,187.9z"/><path d="M868.9,446.3c-0.7-0.9-1.6-1.5-2.6-1.5h-47.4c-1,0-1.9,0.6-2.6,1.5c-0.7,0.9-1.1,2.3-1.1,3.6v17.2h-24.5c-15.3-168.5-157.2-301-329.6-301c-182.6,0-331.1,148.5-331.1,331.1c0,182.6,148.5,331.1,331.1,331.1c172.4,0,314.3-132.5,329.6-301h24.5v17.2c0,1.3,0.4,2.7,1.1,3.6c0.7,1,1.6,1.5,2.6,1.5h47.4c0.9,0,1.9-0.6,2.6-1.5c0.7-1,1.1-2.3,1.1-3.6v-94.6C869.9,448.6,869.5,447.3,868.9,446.3z M461.2,788.8c-160.8,0-291.6-130.8-291.6-291.6c0-160.8,130.8-291.6,291.6-291.6c160.8,0,291.6,130.8,291.6,291.6C752.7,658,621.9,788.8,461.2,788.8z"/></g>
</svg>
