<svg width="32" height="32" viewBox="0 0 32 32" fill="none" xmlns="http://www.w3.org/2000/svg">
<path d="M14.8382 21.3299C13.9435 22.0009 12.6667 21.3625 12.6667 20.2442V11.4227C12.6667 10.3044 13.9435 9.66601 14.8382 10.337L20.7191 14.7477C21.4429 15.2906 21.4429 16.3763 20.7191 16.9192L14.8382 21.3299Z" transform="translate(0.166992 0.167221)" fill="#5F75AA"/>
<path fill-rule="evenodd" clip-rule="evenodd" d="M15.8333 2.71429C8.59239 2.71429 2.71429 8.59239 2.71429 15.8333C2.71429 23.0743 8.59239 28.9524 15.8333 28.9524C23.0743 28.9524 28.9524 23.0743 28.9524 15.8333C28.9524 8.59239 23.0743 2.71429 15.8333 2.71429ZM0 15.8333C0 7.09333 7.09333 0 15.8333 0C24.5733 0 31.6667 7.09333 31.6667 15.8333C31.6667 24.5733 24.5733 31.6667 15.8333 31.6667C7.09333 31.6667 0 24.5733 0 15.8333Z" transform="translate(0.166992 0.167221)" fill="#5F75AA"/>
</svg>
