<svg width="115" height="39" viewBox="0 0 115 39" fill="none" xmlns="http://www.w3.org/2000/svg">
<path d="M113.475 29.1108C110.058 23.5108 100.969 20.3008 91.9677 17.3208C87.7387 15.9208 83.7437 14.5978 80.8427 13.1188C71.9437 8.58283 62.7857 4.25283 62.6947 4.20983C62.0287 3.89483 61.2347 4.17983 60.9197 4.84583C60.9137 4.85983 60.9107 4.87383 60.9047 4.88783L60.9017 4.88583L56.3017 15.5338C26.4787 11.9638 10.7797 6.75083 7.99367 5.76483L5.25166 0.698829C4.90066 0.0508291 4.09169 -0.189171 3.44469 0.160829C2.79669 0.511829 2.55666 1.32083 2.90666 1.96783L5.64366 7.02483C5.18966 8.84483 3.53568 15.3698 1.74068 21.1538C0.448677 25.3138 0.35667 29.7868 0.35167 30.7288C0.18267 31.4518 -0.35433 34.1258 0.36467 36.4018C0.53667 36.9448 1.03368 37.3188 1.60268 37.3328L44.6957 38.4008C45.6367 38.4308 55.6967 38.7448 68.0277 38.7448C84.3977 38.7448 104.767 38.1928 113.087 35.6918C113.569 35.5468 113.929 35.1428 114.016 34.6468C114.037 34.5248 114.631 31.0048 113.475 29.1108ZM62.8007 7.21283C65.6017 8.54883 72.6957 11.9588 79.6317 15.4948C82.7127 17.0658 86.8007 18.4188 91.1297 19.8518C98.3607 22.2458 106.452 24.9248 110.038 28.8878C89.1997 32.3138 52.5797 30.8718 52.5797 30.8718L62.8007 7.21283ZM4.28667 21.9458C5.86867 16.8478 7.34167 11.1838 7.99867 8.59383C12.4937 10.1208 27.6557 14.7398 55.1987 18.0878L49.7077 30.7988L3.05269 29.5928C3.13269 27.8998 3.39967 24.8028 4.28667 21.9458ZM111.474 33.3738C96.1667 37.3358 45.3037 35.7538 44.7717 35.7358L2.71568 34.6938C2.60668 33.8188 2.68167 32.9178 2.77867 32.2528L52.7027 33.5438C78.9787 34.0258 94.5117 34.0628 111.379 31.3528C111.508 32.0948 111.507 32.8358 111.474 33.3738Z" fill="#AEB6C1"/>
</svg>
