<svg width="113" height="71" viewBox="0 0 113 71" fill="none" xmlns="http://www.w3.org/2000/svg">
<path d="M27.544 11.6685C27.251 11.4805 26.887 11.4135 26.546 11.4875C26.205 11.5615 25.901 11.7735 25.713 12.0665C25.525 12.3595 25.46 12.7195 25.534 13.0605C25.608 13.4015 25.817 13.7055 26.11 13.8935C26.403 14.0815 26.766 14.1465 27.107 14.0725C27.448 13.9985 27.752 13.7885 27.94 13.4965C28.128 13.2035 28.193 12.8405 28.119 12.4995C28.046 12.1605 27.837 11.8565 27.544 11.6685Z" fill="#AEB6C1"/>
<path d="M20.347 9.92046C20.052 9.73246 19.688 9.66546 19.349 9.73946C19.008 9.81346 18.705 10.0255 18.516 10.3185C18.328 10.6115 18.263 10.9715 18.337 11.3135C18.411 11.6545 18.621 11.9585 18.913 12.1465C19.206 12.3345 19.569 12.3995 19.91 12.3255C20.249 12.2515 20.553 12.0425 20.743 11.7495C20.931 11.4565 20.996 11.0935 20.922 10.7525C20.849 10.4125 20.64 10.1085 20.347 9.92046Z" fill="#AEB6C1"/>
<path d="M111.014 55.9785L110.359 55.3225L110.205 55.3735C109.683 49.8335 105.873 46.4725 103.812 45.6245C103.502 45.4965 103.165 45.5045 102.847 45.6125C95.3911 48.1425 83.0981 44.2445 83.0321 44.2415C82.6641 44.2225 82.305 44.3585 82.042 44.6155C81.779 44.8725 81.634 45.2285 81.6441 45.5955C81.6571 46.1025 81.695 46.5525 81.728 46.9495C81.867 48.5955 81.9581 49.6815 79.9761 53.3115C77.187 58.4185 75.679 60.5955 75.328 62.2285C58.383 63.3345 52.777 57.7415 50.565 55.5335C50.372 55.3195 50.172 55.1225 49.977 54.9125C51.188 53.1985 53.076 50.4075 54.904 47.2185C58.991 40.0865 60.645 34.6785 59.819 31.1465C59.819 31.1435 59.817 31.1415 59.817 31.1385C59.816 31.1335 59.815 31.1285 59.814 31.1245C59.709 30.7055 57.204 20.8125 54.934 16.4395C52.964 12.6445 48.276 11.3985 35.012 8.35751C22.595 5.50951 14.437 0.266524 14.357 0.214524C14.042 0.00952424 13.653 -0.0524821 13.291 0.0455179C12.928 0.143518 12.623 0.391518 12.454 0.726518L7.79304 9.95952C6.64404 11.4315 -3.48296 24.9145 1.25404 35.9935L1.47504 37.2915C2.61604 43.9805 6.80204 65.9535 12.791 67.8565L13.104 67.9195C30.31 69.5435 50.913 70.4805 66.714 70.4805C72.894 70.4805 78.339 70.3375 82.56 70.0355C96.618 69.0315 110.885 63.6695 111.485 63.4415L112.453 63.0745V62.0395C112.453 60.6495 112.313 57.2775 111.014 55.9785ZM82.298 54.5795C84.593 50.3775 84.53 48.7155 84.378 46.8905C86.789 46.8335 91.8361 50.8775 103.235 48.2975C104.367 48.9635 107.267 51.1835 107.195 56.3535C98.051 59.2215 91.41 60.1735 81.741 61.5545C80.417 61.7435 79.151 61.8945 77.935 62.0155C78.261 60.6335 79.85 59.0625 82.298 54.5795ZM48.103 52.9915C45.728 50.6675 43.261 48.6445 40.755 46.8945C43.71 43.0735 48.471 36.0085 50.48 27.9465C52.944 29.2705 56.866 32.0655 57.344 32.3385C57.957 37.6125 51.882 47.5955 48.103 52.9915ZM22.989 38.3805C19.155 32.8045 13.036 22.8645 10.778 13.3285C14.407 15.3465 21.661 18.8765 31.574 21.2345C39.037 23.0095 44.291 24.9585 48.054 26.7275C46.243 34.5945 41.4 41.7175 38.534 45.4205C33.255 42.0795 27.898 39.8545 22.989 38.3805ZM52.586 17.6585C53.932 20.2505 55.43 25.1685 56.356 28.4585C54.023 26.8315 50.149 24.3725 43.206 21.8825L46.127 13.8675C50.183 15.0995 51.785 16.1155 52.586 17.6585ZM37.538 11.6585C39.899 12.2125 41.893 12.6995 43.575 13.1465L40.702 21.0285C38.837 20.4235 36.78 19.8225 34.509 19.2365L37.538 11.6585ZM14.172 3.19252C23.477 8.66752 34.76 11.0135 34.93 11.0535L31.916 18.5945C20.955 15.9485 13.263 11.7515 10.64 10.1885L14.172 3.19252ZM3.93404 35.5125C0.286045 27.9785 5.34404 18.4235 8.21204 13.9795C10.267 22.6525 15.222 31.4215 19.078 37.3315C11.938 35.6415 6.23104 35.4875 3.93404 35.5125ZM82.346 67.0435C69.3391 67.9725 40.089 67.4425 13.578 64.9515C10.807 63.7345 6.96205 50.7245 4.73805 38.5245C7.69305 38.5735 14.192 38.9785 21.881 41.2605C22.332 41.4075 23.688 41.8455 24.7731 42.1915C32.515 44.8905 41.111 49.5515 48.393 57.5985C51.205 60.4105 58.672 67.8775 82.165 64.5225C92.353 63.0675 99.222 62.0855 109.148 58.8805C109.271 59.4405 109.37 60.2055 109.419 60.9975C105.926 62.2295 93.879 66.2195 82.346 67.0435Z" fill="#AEB6C1"/>
</svg>
