<svg width="114" height="38" viewBox="0 0 114 38" fill="none" xmlns="http://www.w3.org/2000/svg">
<path d="M113.447 20.0319C113.129 18.2799 111.362 14.8429 106.957 14.3669C106.377 14.3039 105.547 14.2579 104.494 14.1999C96.9605 13.7819 76.9495 12.6709 58.1765 0.226861C57.6945 -0.0921387 57.0575 -0.0761395 56.6055 0.283861C56.1535 0.643861 55.9805 1.24286 56.1835 1.78386C56.2055 1.84886 56.6995 3.40286 55.5935 6.01586C54.5335 8.52186 54.4365 11.1039 55.3285 13.0999C55.4055 13.2729 55.4895 13.4409 55.5815 13.6039C44.7385 12.2939 17.1175 8.57386 5.63853 3.46086C5.04152 3.19486 4.33954 3.40086 3.98154 3.94686C3.86754 4.11986 1.18852 8.32386 0.180517 20.3849C0.171517 20.4619 -0.96751 31.5069 2.59049 35.4959C3.64449 36.6779 5.03249 37.3019 6.60349 37.3019H56.3205C57.8765 37.3019 91.8535 37.1759 107.941 27.3869C111.992 25.1709 113.921 22.6679 113.447 20.0319ZM56.3205 34.6349H6.60453C5.78153 34.6349 5.13849 34.3449 4.58249 33.7209C3.85749 32.9089 3.37952 31.6579 3.07352 30.2429C4.60852 31.7129 6.65852 32.4609 9.18052 32.4609H55.9635C56.8635 32.6159 62.6515 33.5749 70.0105 33.9659C62.2115 34.6149 56.4715 34.6349 56.3205 34.6349ZM109.795 22.7369C108.844 23.5939 107.746 24.3859 106.535 25.1239C103.301 26.8779 97.9195 28.7749 89.3385 30.3799C85.4825 31.1009 81.0105 31.4669 76.0465 31.4669C65.5995 31.4669 56.4075 29.8329 56.3155 29.8159C56.2375 29.8019 9.18052 29.7949 9.18052 29.7949C7.17852 29.7949 5.60254 29.2859 4.62754 28.0199C2.53154 25.2959 2.8355 20.6449 2.8375 20.6279C3.5165 12.4749 4.97354 8.16286 5.73154 6.39386C19.4625 11.9439 49.8935 15.6579 57.8775 16.5609L57.3425 17.1229C56.8345 17.6559 56.8545 18.4999 57.3875 19.0079C57.6455 19.2539 57.9765 19.3759 58.3075 19.3759C58.6595 19.3759 59.0105 19.2369 59.2725 18.9629L66.8205 11.0429C67.3285 10.5099 67.3085 9.66586 66.7755 9.15786C66.2425 8.64986 65.3985 8.67086 64.8905 9.20286L60.1995 14.1249C59.0175 13.6859 58.1955 12.9769 57.7645 12.0109C57.1815 10.7069 57.2885 8.85386 58.0505 7.05286C58.5665 5.83286 58.8175 4.75886 58.9205 3.86286C77.6245 15.3769 96.9105 16.4469 104.348 16.8599C104.713 16.8799 105.05 16.8989 105.356 16.9169C105.025 17.2659 104.889 17.7779 105.056 18.2639C105.246 18.8169 105.764 19.1649 106.318 19.1649C106.461 19.1649 106.606 19.1409 106.749 19.0929C107.685 18.7719 108.501 18.3919 109.191 17.9609C110.469 18.9309 110.787 20.2939 110.825 20.5039C111.023 21.6559 109.83 22.7049 109.795 22.7369Z" fill="#AEB6C1"/>
<path d="M50.4346 17.2499C43.7776 16.4519 37.2286 15.4979 30.9696 14.4149C30.2436 14.2889 29.5535 14.7759 29.4285 15.5009C29.3025 16.2269 29.7895 16.9169 30.5145 17.0419C36.8185 18.1329 49.7516 19.9069 50.2766 19.9069C50.9426 19.9069 51.5175 19.4089 51.5985 18.7319C51.6875 18.0009 51.1656 17.3369 50.4346 17.2499Z" fill="#AEB6C1"/>
<path d="M26.8266 13.6709C16.3056 11.7119 10.3426 10.0489 10.2836 10.0319C9.57462 9.83292 8.83858 10.2459 8.63958 10.9549C8.44057 11.6639 8.85361 12.3999 9.56261 12.5989C9.62261 12.6159 25.7226 16.3149 26.5846 16.3149C27.2146 16.3149 27.7746 15.8669 27.8936 15.2249C28.0286 14.5019 27.5506 13.8059 26.8266 13.6709Z" fill="#AEB6C1"/>
<path d="M67.5896 15.565C65.6496 15.264 64.4726 15.0561 64.4616 15.0541C63.7386 14.9251 63.0446 15.4081 62.9156 16.1331C62.7866 16.8581 63.2697 17.5501 63.9947 17.6791C64.0437 17.6881 67.3196 18.2161 67.3866 18.2161C68.0326 18.2161 68.6006 17.7451 68.7026 17.0871C68.8156 16.3591 68.3176 15.678 67.5896 15.565Z" fill="#AEB6C1"/>
<path d="M100.696 17.6229C99.0846 17.8009 97.2466 17.9069 95.2336 17.9379C94.4976 17.9489 93.9096 18.5559 93.9216 19.2919C93.9326 20.0209 94.5275 20.6049 95.2545 20.6049C95.2616 20.6049 99.2956 20.461 100.99 20.274C101.722 20.193 102.25 19.534 102.169 18.8029C102.087 18.07 101.432 17.542 100.696 17.6229Z" fill="#AEB6C1"/>
<path d="M89.7085 17.8596C87.9675 17.7906 86.1035 17.6786 84.1685 17.5276C83.4335 17.4696 82.7925 18.0186 82.7355 18.7536C82.6785 19.4876 83.2275 20.1296 83.9615 20.1866C85.9305 20.3406 89.6385 20.5256 89.6565 20.5256C90.3685 20.5256 90.9595 19.9626 90.9875 19.2456C91.0165 18.5086 90.4445 17.8886 89.7085 17.8596Z" fill="#AEB6C1"/>
<path d="M78.6315 17.0128C76.8335 16.8208 74.9725 16.5988 73.1025 16.3528C72.3715 16.2568 71.7025 16.7708 71.6065 17.5008C71.5105 18.2308 72.0245 18.9008 72.7545 18.9968C74.6465 19.2448 78.4435 19.6718 78.4915 19.6718C79.1645 19.6718 79.7425 19.1638 79.8155 18.4798C79.8935 17.7478 79.3635 17.0918 78.6315 17.0128Z" fill="#AEB6C1"/>
</svg>
