<svg width="103" height="87" viewBox="0 0 103 87" fill="none" xmlns="http://www.w3.org/2000/svg">
<path d="M102.322 65.7645C102.024 65.4655 101.6 65.3255 101.182 65.3915L91.4253 66.9035C91.0793 61.0405 90.0793 58.0405 89.0113 55.2385C88.8893 54.9185 88.4203 54.8965 88.0753 54.9145C80.3583 55.3025 74.1373 52.9035 74.0763 52.8795C73.7343 52.7435 73.3503 52.7575 73.0193 52.9175C72.6873 53.0775 72.4373 53.3675 72.3283 53.7185C72.1783 54.2025 72.0703 54.6415 71.9753 55.0275C71.5803 56.6315 71.3193 57.6895 68.2803 60.4945C63.0273 65.3425 61.7553 68.7315 61.3593 70.5555C57.0663 69.8975 52.1093 67.7745 48.3683 62.2015C48.3623 62.1935 48.3573 62.1845 48.3513 62.1765C48.2443 62.0245 48.0803 62.0415 45.8623 59.1505C42.0803 54.0415 28.2513 45.1105 24.3243 43.1495C22.9823 40.8475 15.1363 26.9625 13.2123 14.0355C17.1373 16.0995 23.8573 19.1335 32.7013 21.2375C36.3233 22.0995 38.0803 22.0425 38.6353 20.2395L41.6643 12.6605C42.0793 11.0405 44.0793 10.0405 36.1383 8.35752C23.6753 5.71652 15.5633 0.266523 15.4833 0.214523C15.1683 0.00952296 14.7793 -0.0524834 14.4173 0.0455166C14.0543 0.143517 13.7493 0.391516 13.5803 0.726516L8.91927 9.95952C8.78627 10.1295 8.73028 10.2995 8.71828 10.4675C5.15728 14.3965 -3.24272 25.1695 1.33028 35.4575L9.09628 85.4095C9.13527 86.1105 9.71429 86.6595 10.4173 86.6595C10.4173 86.6595 49.6633 86.6595 61.3313 86.6595C72.2363 86.6595 98.0003 78.6075 99.1343 78.2645C99.6203 78.1175 99.9783 77.7065 100.058 77.2055L102.693 66.9055C102.757 66.4885 102.62 66.0645 102.322 65.7645ZM70.0743 62.4385C73.5933 59.1915 74.0643 57.5965 74.5043 55.8195C76.8073 56.5375 81.7173 57.7805 87.6063 57.5815C88.0793 60.0405 89.0793 62.0405 88.4383 67.3675C88.4383 67.3675 70.0113 70.5515 64.0303 70.7965C64.4553 69.2425 65.7303 66.4485 70.0743 62.4385ZM15.2983 3.19352C24.6033 8.66852 38.8863 12.0145 39.0563 12.0545L36.0423 19.5955C25.0813 16.9495 14.3893 11.7525 11.7663 10.1895L15.2983 3.19352ZM10.3443 12.5025C11.4963 23.5975 17.1383 35.4415 20.2313 41.2435C19.8843 41.0935 3.63729 34.1345 3.63729 34.1345C0.238291 25.9875 6.80829 16.6815 10.3443 12.5025ZM97.5743 75.9685C92.9913 77.3215 70.8303 84.0145 61.3303 84.0145C50.8833 84.0145 11.6683 84.0145 11.6683 84.0145L4.07629 37.2015L18.1513 43.2335C36.9303 51.0575 45.8953 63.2935 46.1833 63.6925C51.8943 72.1865 60.2533 73.4345 64.7293 73.4545C69.9853 73.4785 99.7953 68.2845 99.7953 68.2845L97.5743 75.9685Z" fill="#AEB6C1"/>
</svg>
