<svg width="112" height="33" viewBox="0 0 112 33" fill="none" xmlns="http://www.w3.org/2000/svg">
<path d="M111.32 18.1396C111.177 16.9166 110.531 15.8426 109.451 15.0336C104.946 11.6566 90.5843 8.25958 89.9763 8.11658C89.5003 8.00558 89.0513 8.21258 88.6813 8.53058C80.9723 15.1536 64.0823 14.7696 64.0823 14.7696C44.5623 14.7696 13.7663 4.29258 4.80226 0.123583C4.48026 -0.0264169 4.11127 -0.0404184 3.77827 0.0845816C3.44627 0.209582 3.17827 0.462583 3.03427 0.787583C2.73527 1.46358 -4.10073 17.2706 3.78427 27.4816V31.4666C3.78427 32.1966 4.37627 32.7896 5.10727 32.7896H28.4063C29.1373 32.7896 29.7293 32.1976 29.7293 31.4666V28.3636C33.6673 28.4646 37.3803 29.0016 41.9583 29.6656C49.6943 30.7876 59.3223 32.1836 75.3493 32.1836C102.027 32.1836 109.103 23.6946 109.699 22.9116C109.986 22.5596 111.592 20.4716 111.32 18.1396ZM27.0843 30.1446H6.43127V28.3466H27.0843V30.1446ZM107.584 21.3226C107.525 21.4046 101.38 29.5386 75.3493 29.5386C59.5123 29.5386 49.9893 28.1576 42.3373 27.0486C37.3503 26.3256 33.0433 25.7006 28.4053 25.7006H5.75027C0.180273 18.2436 3.60527 6.84658 4.96927 3.09858C15.4513 7.65058 44.9993 17.4156 64.0813 17.4156C64.0813 17.4156 81.4323 17.9256 90.0603 10.8586C94.5223 11.9466 104.668 14.7566 107.863 17.1516C108.366 17.5286 108.636 17.9376 108.689 18.4406C108.838 19.8386 107.603 21.2966 107.584 21.3226Z" fill="#AEB6C1"/>
</svg>
