<svg width="115" height="43" viewBox="0 0 115 43" fill="none" xmlns="http://www.w3.org/2000/svg">
<path d="M111.6 24.179C110.888 23.896 86.7621 15.852 85.8501 15.562C84.2931 14.742 66.0601 5.153 57.8321 1.537C55.4781 0.503001 53.4201 1.37329e-07 51.5411 1.37329e-07C46.7331 1.37329e-07 44.2421 3.418 42.4241 5.914C41.2841 7.478 38.7621 8.271 34.9251 8.271C23.9211 8.271 6.71809 1.584 6.54509 1.516C6.01309 1.308 5.44409 1.498 5.03709 1.901C3.40909 3.515 1.80807 8.555 1.80607 8.647C-0.277929 16.161 0.238077 25.517 0.337077 26.999C0.122077 28.165 -0.820936 34.23 1.84806 38.695C2.08906 39.098 2.52308 39.344 2.99308 39.344C2.99508 39.344 2.99706 39.344 2.99906 39.344C3.31506 39.342 34.6151 39.201 41.5151 39.917C57.1321 41.537 69.5811 42.122 79.4161 42.121C104.169 42.121 112.366 38.419 112.826 38.2C113.104 38.068 113.328 37.845 113.459 37.567C113.557 37.36 115.817 32.457 113.566 25.709C113.426 24.906 112.607 24.58 111.6 24.179ZM85.9231 18.383C94.0041 20.966 105.658 24.78 109.912 26.379C107.796 27.222 101.906 28.635 85.7111 29.314C82.6421 29.443 78.9051 29.511 74.9041 29.511C70.4921 29.511 61.4541 29.417 52.4941 28.763C52.5691 27.538 52.9371 25.466 54.4651 23.924C56.1851 22.187 58.9851 21.479 62.7871 21.822C75.9861 23.009 83.2381 21.947 85.9231 18.383ZM6.51908 4.359C10.3611 5.796 24.8111 10.937 34.9261 10.937C39.6621 10.937 42.9111 9.775 44.5801 7.483C46.6351 4.662 48.3381 2.672 51.5421 2.666C54.2821 2.66 57.3841 4.255 57.7151 4.404C56.0471 5.466 55.0251 6.979 54.9561 7.084C54.5511 7.697 54.7181 8.52 55.3301 8.928C55.5571 9.079 55.8131 9.151 56.0671 9.151C56.4971 9.151 56.9201 8.943 57.1781 8.559C57.1961 8.531 59.0121 5.863 61.2331 6.048C62.3411 6.579 63.5121 7.149 64.7171 7.742C62.9621 8.829 62.0061 10.455 61.945 10.563C61.579 11.199 61.798 12.008 62.432 12.377C62.642 12.499 62.8721 12.557 63.0991 12.557C63.5571 12.557 64.0041 12.321 64.2531 11.897C64.2681 11.871 65.7711 9.366 68.1411 9.444C69.3351 10.043 70.5341 10.649 71.7111 11.248C69.4281 12.418 68.4531 14.298 68.3971 14.409C68.0661 15.067 68.3311 15.868 68.9901 16.199C69.1821 16.296 69.3861 16.341 69.5871 16.341C70.0751 16.341 70.5451 16.072 70.7801 15.606C70.7921 15.582 72.0081 13.252 75.1751 13.017C78.6751 14.815 81.683 16.385 83.341 17.254C81.404 18.974 76.1481 20.345 63.0271 19.165C58.3801 18.746 54.8541 19.724 52.5481 22.071C50.4641 24.192 49.9411 26.89 49.833 28.551C46.709 28.281 43.6511 27.936 40.8651 27.496C37.7281 27.001 31.1381 26.626 24.2411 26.353C23.8321 20.486 20.217 15.391 13.721 11.564C10.216 9.499 6.74607 8.306 4.86607 7.75C5.31307 6.487 5.85608 5.331 6.51908 4.359ZM4.1121 10.313C8.1711 11.526 20.621 16.062 21.557 26.253C13.68 25.972 5.93209 25.82 2.94609 25.767C2.83309 23.016 2.7251 16.096 4.1121 10.313ZM111.225 35.971C108.268 37.049 90.6821 42.336 41.7921 37.264C35.2951 36.59 8.8571 36.655 3.7891 36.674C2.4141 33.815 2.6111 30.204 2.8231 28.432C8.5301 28.535 33.5701 29.044 40.4481 30.13C52.1461 31.978 68.4411 32.178 74.9031 32.178C78.9411 32.178 82.7171 32.109 85.8221 31.979C102.638 31.273 109.02 29.765 111.569 28.552C112.3 32.176 111.581 34.931 111.225 35.971Z" fill="#AEB6C1"/>
</svg>
